{"glyphs":{"0":{"ha":1085,"x_min":0,"x_max":0,"o":"m 57 500 b 543 -35 57 190 261 -35 b 1029 500 825 -35 1029 190 b 543 1035 1029 810 825 1035 b 57 500 261 1035 57 810 z m 418 500 b 543 729 418 633 471 729 b 668 500 615 729 668 633 b 543 271 668 367 615 271 b 418 500 471 271 418 367 z "},"1":{"ha":724,"x_min":0,"x_max":0,"o":"m 279 639 l 279 0 l 626 0 l 626 1000 l 321 1000 l 43 792 l 43 468 z "},"2":{"ha":940,"x_min":0,"x_max":0,"o":"m 885 690 b 485 1035 883 894 706 1035 b 56 669 253 1035 74 882 l 364 611 b 479 757 374 696 422 757 b 565 658 529 757 565 722 b 465 528 565 589 525 547 l 50 393 l 50 0 l 857 0 l 857 250 l 247 250 l 640 368 b 885 690 783 411 885 535 z "},"3":{"ha":939,"x_min":0,"x_max":0,"o":"m 856 1000 l 64 1000 l 64 750 l 743 750 l 314 646 l 378 475 b 444 486 396 482 426 486 b 550 363 506 486 550 435 b 453 243 550 292 510 243 b 336 390 381 243 344 306 l 22 347 b 453 -35 36 126 192 -35 b 883 282 703 -35 883 94 b 565 524 883 418 789 506 l 856 600 z "},"4":{"ha":985,"x_min":0,"x_max":0,"o":"m 335 444 l 474 917 l 474 444 z m 835 444 l 835 1000 l 222 1000 l 15 375 l 15 194 l 474 194 l 474 0 l 835 0 l 835 194 l 943 194 l 943 444 z "},"5":{"ha":958,"x_min":0,"x_max":0,"o":"m 576 347 b 479 243 576 289 536 243 b 363 390 407 243 371 306 l 49 347 b 479 -35 63 126 218 -35 b 910 328 728 -35 910 111 b 576 653 910 518 769 653 l 394 653 l 401 750 l 840 750 l 840 1000 l 153 1000 l 118 458 l 454 458 b 576 347 525 458 576 413 z "},"6":{"ha":975,"x_min":0,"x_max":0,"o":"m 488 472 b 571 361 538 472 571 428 b 488 243 571 290 538 243 b 404 361 438 243 404 290 b 488 472 404 428 438 472 z m 43 349 b 476 -35 43 118 217 -35 b 932 361 750 -35 932 125 b 689 653 932 535 832 653 b 464 556 604 653 528 614 l 789 1000 l 404 1000 l 133 592 b 43 349 89 525 43 431 z "},"7":{"ha":753,"x_min":0,"x_max":0,"o":"m 751 513 l 751 1000 l 15 1000 l 15 722 l 556 722 l 64 0 l 432 0 z "},"8":{"ha":1001,"x_min":0,"x_max":0,"o":"m 501 403 b 585 324 550 403 585 369 b 501 243 585 276 550 243 b 418 324 453 243 418 276 b 501 403 418 369 453 403 z m 501 771 b 585 693 550 771 585 738 b 501 611 585 646 550 611 b 418 693 453 611 418 646 b 501 771 418 738 453 771 z m 501 1042 b 99 763 268 1042 97 921 b 353 528 99 636 206 554 b 57 279 182 514 57 425 b 501 -28 56 101 243 -28 b 946 279 758 -28 944 101 b 650 528 946 425 822 514 b 904 764 797 554 904 636 b 501 1042 903 924 735 1042 z "},"9":{"ha":975,"x_min":0,"x_max":0,"o":"m 488 528 b 404 639 438 528 404 572 b 488 757 404 710 438 757 b 571 639 538 757 571 710 b 488 528 571 572 538 528 z m 932 651 b 499 1035 932 882 758 1035 b 43 639 225 1035 43 875 b 286 347 43 465 142 347 b 511 444 369 347 447 386 l 186 0 l 571 0 l 842 408 b 932 651 885 475 932 569 z "},"\u0000":{"ha":1031,"x_min":0,"x_max":0,"o":"m 946 1000 l 85 1000 l 85 0 l 946 0 z m 363 236 l 363 764 l 668 764 l 668 236 z "},"\r":{"ha":42,"x_min":0,"x_max":0,"o":""}," ":{"ha":417,"x_min":0,"x_max":0,"o":""},"!":{"ha":517,"x_min":0,"x_max":0,"o":"m 85 139 b 258 -28 85 42 158 -28 b 432 139 360 -28 432 42 b 258 306 432 236 360 306 b 85 139 158 306 85 236 z m 418 722 l 418 1000 l 99 1000 l 99 722 l 182 361 l 335 361 z "},"\"":{"ha":628,"x_min":0,"x_max":0,"o":"m 224 472 l 265 806 l 265 1000 l 43 1000 l 43 806 l 85 472 z m 543 472 l 585 806 l 585 1000 l 363 1000 l 363 806 l 404 472 z "},"#":{"ha":1267,"x_min":0,"x_max":0,"o":"m 710 583 l 676 458 l 528 458 l 563 583 z m 203 250 l 135 0 l 404 0 l 472 250 l 619 250 l 551 0 l 821 0 l 889 250 l 1154 250 l 1154 458 l 944 458 l 979 583 l 1224 583 l 1224 792 l 1035 792 l 1104 1042 l 835 1042 l 767 792 l 618 792 l 688 1042 l 418 1042 l 350 792 l 113 792 l 113 583 l 293 583 l 260 458 l 43 458 l 43 250 z "},"$":{"ha":1018,"x_min":0,"x_max":0,"o":"m 678 -11 b 969 333 854 39 969 165 b 565 653 969 574 772 633 b 400 722 471 663 400 669 b 510 785 400 758 447 785 b 650 682 590 785 650 742 l 944 682 b 678 1008 944 835 839 957 l 678 1139 l 344 1139 l 344 1017 b 53 681 168 972 53 849 b 460 358 53 442 246 382 b 622 285 551 349 622 340 b 510 215 622 244 575 215 b 358 332 425 215 358 264 l 50 332 b 344 -15 50 164 168 32 l 344 -171 l 678 -171 z "},"%":{"ha":1572,"x_min":0,"x_max":0,"o":"m 1210 611 b 890 292 1025 611 890 476 b 1210 -28 890 107 1025 -28 b 1529 292 1394 -28 1529 107 b 1210 611 1529 476 1394 611 z m 1210 375 b 1293 292 1258 375 1293 340 b 1210 208 1293 243 1258 208 b 1126 292 1161 208 1126 243 b 1210 375 1126 340 1161 375 z m 363 1069 b 43 750 178 1069 43 935 b 363 431 43 565 178 431 b 682 750 547 431 682 565 b 363 1069 682 935 547 1069 z m 363 833 b 446 750 411 833 446 799 b 363 667 446 701 411 667 b 279 750 314 667 279 701 b 363 833 279 799 314 833 z m 1261 1042 l 1001 1042 l 311 0 l 571 0 z "},"&":{"ha":1224,"x_min":0,"x_max":0,"o":"m 372 301 b 413 375 372 333 389 363 b 599 213 443 349 568 239 b 508 201 571 206 542 201 b 372 301 429 201 372 244 z m 1175 0 b 960 196 1140 32 997 163 b 1118 472 1031 275 1088 367 l 842 472 b 785 357 825 429 807 390 b 542 579 743 394 581 543 b 467 715 489 626 467 671 b 547 813 467 772 503 813 b 646 708 593 813 635 769 l 910 754 b 544 1035 889 917 735 1035 b 189 719 342 1035 189 903 b 243 546 189 658 210 599 b 50 278 136 499 50 424 b 453 -35 50 78 211 -35 b 783 51 576 -35 688 -3 l 842 0 z "},"'":{"ha":308,"x_min":0,"x_max":0,"o":"m 224 472 l 265 806 l 265 1000 l 43 1000 l 43 806 l 85 472 z "},"(":{"ha":550,"x_min":0,"x_max":0,"o":"m 43 396 b 265 -250 43 133 132 -117 l 547 -250 b 321 396 411 -86 321 164 b 549 1042 321 628 411 878 l 265 1042 b 43 396 132 908 43 658 z "},")":{"ha":549,"x_min":0,"x_max":0,"o":"m 507 396 b 285 1042 507 658 418 908 l 1 1042 b 229 396 138 878 229 628 b 3 -250 229 164 139 -86 l 285 -250 b 507 396 418 -117 507 133 z "},"*":{"ha":719,"x_min":0,"x_max":0,"o":"m 572 451 l 676 632 l 542 694 l 676 757 l 572 938 l 450 851 l 464 1000 l 256 1000 l 269 851 l 147 938 l 43 757 l 178 694 l 43 632 l 147 451 l 269 538 l 256 389 l 464 389 l 450 538 z "},"+":{"ha":739,"x_min":0,"x_max":0,"o":"m 515 125 l 515 319 l 696 319 l 696 542 l 515 542 l 515 736 l 224 736 l 224 542 l 43 542 l 43 319 l 224 319 l 224 125 z "},",":{"ha":433,"x_min":0,"x_max":0,"o":"m 43 139 b 196 -28 43 42 107 -28 b 68 -236 196 -79 142 -167 l 224 -264 b 390 71 319 -187 390 -46 b 210 306 390 213 318 306 b 43 139 117 306 43 236 z "},"-":{"ha":656,"x_min":0,"x_max":0,"o":"m 613 556 l 43 556 l 43 306 l 613 306 z "},".":{"ha":433,"x_min":0,"x_max":0,"o":"m 43 139 b 217 -28 43 42 117 -28 b 390 139 318 -28 390 42 b 217 306 390 236 318 306 b 43 139 117 306 43 236 z "},"/":{"ha":722,"x_min":0,"x_max":0,"o":"m 721 1000 l 451 1000 l 1 -319 l 271 -319 z "},":":{"ha":433,"x_min":0,"x_max":0,"o":"m 43 139 b 217 -28 43 42 117 -28 b 390 139 318 -28 390 42 b 217 306 390 236 318 306 b 43 139 117 306 43 236 z m 43 611 b 217 444 43 514 117 444 b 390 611 318 444 390 514 b 217 778 390 708 318 778 b 43 611 117 778 43 708 z "},";":{"ha":433,"x_min":0,"x_max":0,"o":"m 43 139 b 196 -28 43 42 107 -28 b 68 -236 196 -79 142 -167 l 224 -264 b 390 71 319 -187 390 -46 b 210 306 390 213 318 306 b 43 139 117 306 43 236 z m 43 611 b 217 444 43 514 117 444 b 390 611 318 444 390 514 b 217 778 390 708 318 778 b 43 611 117 778 43 708 z "},"<":{"ha":586,"x_min":0,"x_max":0,"o":"m 543 250 l 86 361 l 543 472 l 543 738 l 1 556 l 1 167 l 543 -17 z "},"=":{"ha":739,"x_min":0,"x_max":0,"o":"m 43 361 l 43 125 l 696 125 l 696 361 z m 43 722 l 43 486 l 696 486 l 696 722 z "},">":{"ha":585,"x_min":0,"x_max":0,"o":"m 43 738 l 43 472 l 500 361 l 43 250 l 43 -17 l 585 167 l 585 556 z "},"?":{"ha":932,"x_min":0,"x_max":0,"o":"m 286 139 b 460 -28 286 42 360 -28 b 633 139 561 -28 633 42 b 460 306 633 236 561 306 b 286 139 360 306 286 236 z m 599 333 b 724 492 599 425 651 458 b 890 738 819 536 890 626 b 485 1035 890 913 718 1035 b 43 699 235 1035 58 894 l 363 640 b 468 771 371 717 411 771 b 543 701 511 771 543 742 b 458 603 543 654 496 625 b 321 333 358 538 321 465 z "},"@":{"ha":1446,"x_min":0,"x_max":0,"o":"m 807 361 b 724 278 807 313 772 278 b 640 361 675 278 640 313 b 724 444 640 410 675 444 b 807 361 772 444 807 410 z m 1057 347 b 724 667 1057 538 924 667 b 390 361 531 667 390 539 b 638 56 390 178 489 56 b 838 138 714 56 794 89 b 1071 0 856 56 950 0 b 1404 361 1307 0 1404 150 b 724 965 1404 711 1118 965 b 43 361 329 965 43 711 b 599 -243 43 10 279 -243 b 819 -189 674 -243 763 -221 l 819 18 b 599 -37 764 -14 675 -37 b 265 361 406 -37 265 131 b 724 785 265 607 458 785 b 1182 361 989 785 1182 607 b 1108 153 1182 240 1167 153 b 1057 247 1050 153 1057 213 z "},"A":{"ha":1117,"x_min":0,"x_max":0,"o":"m 663 375 l 453 375 l 557 890 z m 403 125 l 714 125 l 739 1 l 1115 1 l 876 1000 l 238 1000 l 1 0 l 378 0 z "},"B":{"ha":1113,"x_min":0,"x_max":0,"o":"m 585 403 b 682 319 643 403 682 369 b 585 250 682 278 643 250 l 446 250 l 446 403 z m 654 681 b 557 611 654 639 615 611 l 446 611 l 446 750 l 557 750 b 654 681 615 750 654 722 z m 696 507 b 1028 742 889 529 1028 581 b 722 1000 1029 897 900 1000 l 85 1000 l 85 0 l 760 0 b 1056 254 932 0 1057 99 b 696 507 1056 424 906 488 z "},"C":{"ha":1169,"x_min":0,"x_max":0,"o":"m 793 421 b 610 271 776 333 699 271 b 404 500 488 271 404 363 b 611 729 404 638 486 729 b 792 579 700 729 776 667 l 1124 614 b 599 1035 1107 858 886 1035 b 43 500 276 1035 43 810 b 599 -35 43 190 276 -35 b 1128 386 893 -35 1115 142 z "},"D":{"ha":1140,"x_min":0,"x_max":0,"o":"m 1099 500 b 529 1000 1099 800 871 1000 l 85 1000 l 85 0 l 529 0 b 1099 500 871 0 1099 200 z m 529 736 b 738 500 654 736 738 642 b 529 264 738 358 654 264 l 432 264 l 432 736 z "},"E":{"ha":863,"x_min":0,"x_max":0,"o":"m 432 278 l 432 389 l 751 389 l 751 625 l 432 625 l 432 722 l 807 722 l 807 1000 l 85 1000 l 85 0 l 821 0 l 821 278 z "},"F":{"ha":849,"x_min":0,"x_max":0,"o":"m 738 306 l 738 569 l 446 569 l 446 694 l 821 694 l 821 1000 l 85 1000 l 85 0 l 446 0 l 446 306 z "},"G":{"ha":1196,"x_min":0,"x_max":0,"o":"m 807 389 b 626 271 797 321 719 271 b 404 500 496 271 404 367 b 610 729 404 633 490 729 b 776 625 690 729 758 686 l 1108 681 b 613 1035 1067 888 869 1035 b 43 500 282 1035 43 810 b 613 -35 43 190 282 -35 b 1150 583 964 -35 1190 225 l 599 583 l 599 389 z "},"H":{"ha":1153,"x_min":0,"x_max":0,"o":"m 708 0 l 1069 0 l 1069 1000 l 708 1000 l 708 653 l 444 653 l 444 1000 l 83 1000 l 83 0 l 444 0 l 444 375 l 708 375 z "},"I":{"ha":531,"x_min":0,"x_max":0,"o":"m 446 1000 l 85 1000 l 85 0 l 446 0 z "},"J":{"ha":711,"x_min":0,"x_max":0,"o":"m 279 389 b 154 250 279 306 229 250 b 43 264 117 250 72 256 l 43 0 b 263 -28 96 -17 183 -28 b 640 333 481 -28 640 117 l 640 1000 l 279 1000 z "},"K":{"ha":1104,"x_min":0,"x_max":0,"o":"m 446 569 l 446 1000 l 85 1000 l 85 0 l 446 0 l 446 478 l 682 0 l 1103 0 l 807 528 l 1103 1000 l 682 1000 z "},"L":{"ha":807,"x_min":0,"x_max":0,"o":"m 765 0 l 765 306 l 446 306 l 446 1000 l 85 1000 l 85 0 z "},"M":{"ha":1489,"x_min":0,"x_max":0,"o":"m 1404 0 l 1404 1000 l 804 1000 l 744 169 l 676 1000 l 85 1000 l 85 0 l 418 0 l 418 839 l 501 0 l 974 0 l 1071 839 l 1071 0 z "},"N":{"ha":1156,"x_min":0,"x_max":0,"o":"m 640 1000 l 85 1000 l 85 0 l 404 0 l 404 840 l 515 0 l 1071 0 l 1071 1000 l 751 1000 l 751 157 z "},"O":{"ha":1224,"x_min":0,"x_max":0,"o":"m 43 500 b 613 -35 43 179 271 -35 b 1182 500 954 -35 1182 179 b 613 1035 1182 821 954 1035 b 43 500 271 1035 43 821 z m 404 500 b 613 729 404 638 488 729 b 821 500 738 729 821 638 b 613 271 821 363 738 271 b 404 500 488 271 404 363 z "},"P":{"ha":1057,"x_min":0,"x_max":0,"o":"m 529 750 b 668 625 613 750 668 700 b 529 500 668 550 613 500 l 432 500 l 432 750 z m 432 250 l 599 250 b 1029 625 857 250 1029 400 b 603 1000 1029 850 858 1000 l 85 1000 l 85 0 l 432 0 z "},"Q":{"ha":1224,"x_min":0,"x_max":0,"o":"m 404 500 b 613 729 404 638 488 729 b 821 500 738 729 821 638 b 613 271 821 363 738 271 b 404 500 488 271 404 363 z m 779 -14 b 1182 500 1019 49 1182 244 b 613 1035 1182 821 954 1035 b 43 500 271 1035 43 821 b 460 -19 43 229 204 35 l 460 -114 b 726 -333 460 -244 561 -333 b 944 -154 853 -333 944 -258 l 944 -51 l 889 -51 l 889 -153 b 833 -211 889 -187 865 -211 b 779 -153 801 -211 779 -187 z "},"R":{"ha":1118,"x_min":0,"x_max":0,"o":"m 682 639 b 543 528 682 568 618 528 l 446 528 l 446 750 l 543 750 b 682 639 618 750 682 710 z m 849 350 b 1043 639 969 403 1043 504 b 617 1000 1043 857 874 1000 l 85 1000 l 85 0 l 446 0 l 446 306 l 529 306 l 682 0 l 1076 0 z "},"S":{"ha":1018,"x_min":0,"x_max":0,"o":"m 497 -35 b 969 333 771 -35 969 113 b 565 653 969 574 772 633 b 400 722 471 663 400 669 b 510 785 400 758 447 785 b 650 682 590 785 650 742 l 944 682 b 497 1035 944 886 757 1035 b 53 681 239 1035 53 894 b 460 358 53 442 246 382 b 622 285 551 349 622 340 b 510 215 622 244 575 215 b 358 332 425 215 358 264 l 50 332 b 497 -35 50 119 238 -35 z "},"T":{"ha":919,"x_min":0,"x_max":0,"o":"m 279 708 l 279 0 l 640 0 l 640 708 l 904 708 l 904 1000 l 15 1000 l 15 708 z "},"U":{"ha":1128,"x_min":0,"x_max":0,"o":"m 696 438 b 564 271 696 338 643 271 b 432 438 469 278 432 358 l 432 1000 l 71 1000 l 71 424 b 564 -35 71 149 268 -35 b 1057 424 860 -35 1057 149 l 1057 1000 l 696 1000 z "},"V":{"ha":1110,"x_min":0,"x_max":0,"o":"m 554 99 l 374 1000 l 1 1000 l 235 0 l 874 0 l 1108 1000 l 735 1000 z "},"W":{"ha":1783,"x_min":0,"x_max":0,"o":"m 614 1000 l 531 94 l 378 1000 l 15 1000 l 211 0 l 808 0 l 892 888 l 975 0 l 1572 0 l 1768 1000 l 1406 1000 l 1254 94 l 1169 1000 z "},"X":{"ha":1240,"x_min":0,"x_max":0,"o":"m 617 575 l 429 1000 l 17 1000 l 263 528 l 15 0 l 429 0 l 617 469 l 804 0 l 1225 0 l 957 528 l 1224 1000 l 804 1000 z "},"Y":{"ha":1032,"x_min":0,"x_max":0,"o":"m 653 1000 l 521 639 l 374 1000 l 0 1000 l 340 333 l 340 0 l 701 0 l 701 333 l 1032 1000 z "},"Z":{"ha":947,"x_min":0,"x_max":0,"o":"m 696 722 l 57 486 l 57 0 l 890 0 l 890 278 l 256 278 l 876 514 l 876 1000 l 71 1000 l 71 722 z "},"[":{"ha":572,"x_min":0,"x_max":0,"o":"m 390 833 l 571 833 l 571 1042 l 85 1042 l 85 -250 l 571 -250 l 571 -42 l 390 -42 z "},"\\":{"ha":722,"x_min":0,"x_max":0,"o":"m 1 1000 l 451 -319 l 721 -319 l 271 1000 z "},"]":{"ha":572,"x_min":0,"x_max":0,"o":"m 488 -250 l 488 1042 l 1 1042 l 1 833 l 182 833 l 182 -42 l 1 -42 l 1 -250 z "},"^":{"ha":878,"x_min":0,"x_max":0,"o":"m 439 919 l 550 556 l 835 556 l 661 1000 l 217 1000 l 43 556 l 331 556 z "},"_":{"ha":694,"x_min":0,"x_max":0,"o":"m 0 0 l 0 -208 l 694 -208 l 694 0 z "},"`":{"ha":513,"x_min":0,"x_max":0,"o":"m 43 1042 l 261 792 l 469 792 l 317 1042 z "},"a":{"ha":1007,"x_min":0,"x_max":0,"o":"m 460 250 b 363 361 403 250 363 297 b 460 472 363 425 403 472 b 557 361 517 472 557 425 b 460 250 557 297 517 250 z m 558 501 b 326 750 528 654 442 750 b 43 361 157 750 43 594 b 326 -28 43 128 157 -28 b 558 221 442 -28 528 68 l 558 153 b 771 -28 558 18 653 -28 b 978 117 906 -28 978 31 l 978 250 l 922 250 l 922 118 b 899 94 922 104 913 94 b 878 118 886 94 878 104 l 878 722 l 558 722 z "},"b":{"ha":933,"x_min":0,"x_max":0,"o":"m 571 361 b 474 250 571 297 531 250 b 376 361 417 250 376 297 b 474 472 376 425 417 472 b 571 361 531 472 571 425 z m 390 160 b 614 -28 429 43 506 -28 b 890 361 779 -28 890 128 b 614 750 890 594 779 750 b 390 560 508 750 429 678 l 390 1042 l 71 1042 l 71 0 l 390 0 z "},"c":{"ha":885,"x_min":0,"x_max":0,"o":"m 849 440 b 457 750 829 619 660 750 b 43 361 217 750 43 586 b 457 -28 43 136 221 -28 b 849 285 660 -28 828 104 l 557 319 b 461 236 547 271 507 236 b 363 361 403 236 363 289 b 461 486 363 433 404 486 b 557 403 507 486 547 451 z "},"d":{"ha":933,"x_min":0,"x_max":0,"o":"m 363 361 b 460 472 363 425 403 472 b 557 361 517 472 557 425 b 460 250 557 297 517 250 b 363 361 403 250 363 297 z m 543 1042 l 543 560 b 319 750 503 678 424 750 b 43 361 153 750 43 594 b 319 -28 43 128 153 -28 b 543 160 426 -28 504 43 l 543 0 l 863 0 l 863 1042 z "},"e":{"ha":906,"x_min":0,"x_max":0,"o":"m 368 431 b 456 528 379 490 407 528 b 543 431 507 528 543 479 z m 557 250 b 474 194 546 218 519 194 b 372 278 421 194 389 225 l 858 278 b 863 357 861 290 863 335 b 460 750 863 593 707 750 b 43 361 215 750 43 594 b 453 -28 43 128 210 -28 b 835 215 649 -28 807 75 z "},"f":{"ha":614,"x_min":0,"x_max":0,"o":"m 583 919 b 378 1088 583 1017 497 1088 b 126 879 222 1088 126 1003 l 126 722 l 43 722 l 43 486 l 126 486 l 126 0 l 446 0 l 446 486 l 585 486 l 585 722 l 446 722 l 446 918 b 486 965 446 946 463 965 b 528 918 510 965 528 946 l 528 806 l 583 806 z "},"g":{"ha":933,"x_min":0,"x_max":0,"o":"m 557 361 b 460 250 557 297 517 250 b 363 361 403 250 363 297 b 460 472 363 425 403 472 b 557 361 517 472 557 425 z m 460 -347 b 863 0 701 -347 863 -208 l 863 722 l 543 722 l 543 561 b 318 750 504 679 425 750 b 43 361 158 750 43 594 b 318 0 43 144 158 0 b 543 175 425 0 504 67 l 543 14 b 444 -111 543 -61 503 -111 b 344 -28 396 -111 353 -76 l 69 -56 b 460 -347 82 -225 246 -347 z "},"h":{"ha":892,"x_min":0,"x_max":0,"o":"m 835 486 b 622 750 835 639 744 750 b 390 519 511 750 424 658 l 390 1042 l 71 1042 l 71 0 l 390 0 l 390 389 b 451 472 390 439 414 472 b 515 389 489 472 515 439 l 515 0 l 835 0 z "},"i":{"ha":489,"x_min":0,"x_max":0,"o":"m 404 722 l 85 722 l 85 0 l 404 0 z m 71 944 b 244 778 71 847 144 778 b 418 944 346 778 418 847 b 244 1111 418 1042 346 1111 b 71 944 144 1111 71 1042 z "},"j":{"ha":501,"x_min":0,"x_max":0,"o":"m 97 722 l 97 -153 b 43 -211 97 -187 75 -211 b -12 -153 11 -211 -12 -187 l -12 -51 l -68 -51 l -68 -154 b 150 -333 -68 -258 24 -333 b 417 -114 315 -333 417 -244 l 417 722 z m 431 944 b 257 1111 431 1042 358 1111 b 83 944 157 1111 83 1042 b 257 778 83 847 157 778 b 431 944 358 778 431 847 z "},"k":{"ha":940,"x_min":0,"x_max":0,"o":"m 71 1042 l 71 0 l 390 0 l 390 326 l 571 0 l 940 0 l 710 375 l 938 722 l 571 722 l 390 426 l 390 1042 z "},"l":{"ha":458,"x_min":0,"x_max":0,"o":"m 389 1042 l 69 1042 l 69 0 l 389 0 z "},"m":{"ha":1350,"x_min":0,"x_max":0,"o":"m 1081 750 b 835 511 967 750 871 656 b 622 750 821 653 735 750 b 390 514 513 750 424 657 l 390 722 l 71 722 l 71 0 l 390 0 l 390 389 b 451 472 390 439 413 472 b 515 389 490 472 515 439 l 515 0 l 835 0 l 835 389 b 903 472 835 439 860 472 b 974 389 950 468 974 432 l 974 0 l 1293 0 l 1293 486 b 1081 750 1293 639 1203 750 z "},"n":{"ha":892,"x_min":0,"x_max":0,"o":"m 453 472 b 515 389 490 472 515 439 l 515 0 l 835 0 l 835 472 b 614 750 835 633 740 750 b 390 522 501 750 421 660 l 390 722 l 71 722 l 71 0 l 390 0 l 390 389 b 453 472 390 439 415 472 z "},"o":{"ha":917,"x_min":0,"x_max":0,"o":"m 875 361 b 458 750 875 594 708 750 b 42 361 208 750 42 594 b 458 -28 42 128 208 -28 b 875 361 708 -28 875 128 z m 556 361 b 458 250 556 294 517 250 b 361 361 400 250 361 294 b 458 472 361 428 400 472 b 556 361 517 472 556 428 z "},"p":{"ha":933,"x_min":0,"x_max":0,"o":"m 571 361 b 474 250 571 297 531 250 b 376 361 417 250 376 297 b 474 472 376 425 417 472 b 571 361 531 472 571 425 z m 390 -319 l 390 163 b 614 -28 429 44 508 -28 b 890 361 779 -28 890 128 b 614 750 890 594 779 750 b 390 563 506 750 429 679 l 390 722 l 71 722 l 71 -319 z "},"q":{"ha":933,"x_min":0,"x_max":0,"o":"m 363 361 b 460 472 363 425 403 472 b 557 361 517 472 557 425 b 460 250 557 297 517 250 b 363 361 403 250 363 297 z m 543 563 b 319 750 504 679 426 750 b 43 361 153 750 43 594 b 319 -28 43 128 153 -28 b 543 163 424 -28 503 44 l 543 -319 l 863 -319 l 863 722 l 543 722 z "},"r":{"ha":654,"x_min":0,"x_max":0,"o":"m 569 750 b 390 513 486 750 418 657 l 390 722 l 71 722 l 71 0 l 390 0 l 390 361 b 507 483 390 435 438 483 b 640 451 543 483 596 471 l 640 733 b 569 750 617 744 590 750 z "},"s":{"ha":808,"x_min":0,"x_max":0,"o":"m 392 -35 b 781 251 625 -35 781 83 b 419 471 781 428 582 457 b 322 519 401 472 322 479 b 393 563 322 544 351 563 b 481 501 442 563 481 538 l 746 501 b 392 757 746 650 596 757 b 44 486 190 757 44 643 b 336 263 44 303 188 269 b 475 210 449 257 475 240 b 399 160 475 181 442 160 b 294 233 338 160 294 190 l 43 233 b 392 -35 43 78 189 -35 z "},"t":{"ha":614,"x_min":0,"x_max":0,"o":"m 514 142 b 472 94 514 114 496 94 b 432 142 449 94 432 114 l 432 486 l 571 486 l 571 722 l 432 722 l 432 917 l 154 917 l 126 722 l 29 722 l 29 486 l 113 486 l 113 181 b 364 -28 113 56 208 -28 b 569 140 483 -28 569 43 l 569 254 l 514 254 z "},"u":{"ha":892,"x_min":0,"x_max":0,"o":"m 439 250 b 376 333 401 250 376 283 l 376 722 l 57 722 l 57 250 b 278 -28 57 89 151 -28 b 501 200 389 -28 469 63 l 501 0 l 821 0 l 821 722 l 501 722 l 501 333 b 439 250 501 283 476 250 z "},"v":{"ha":918,"x_min":0,"x_max":0,"o":"m 918 722 l 578 722 l 460 72 l 342 722 l 1 722 l 189 0 l 731 0 z "},"w":{"ha":1343,"x_min":0,"x_max":0,"o":"m 872 722 l 471 722 l 404 74 l 346 722 l 15 722 l 138 0 l 610 0 l 672 611 l 735 0 l 1207 0 l 1329 722 l 1013 722 l 953 64 z "},"x":{"ha":988,"x_min":0,"x_max":0,"o":"m 25 722 l 182 375 l 15 0 l 404 0 l 494 336 l 585 0 l 974 0 l 807 375 l 964 722 l 585 722 l 494 407 l 404 722 z "},"y":{"ha":913,"x_min":0,"x_max":0,"o":"m 447 99 l 335 722 l 1 722 l 208 0 l 426 0 b 239 -235 382 -153 344 -235 b 125 -125 161 -235 125 -189 l 125 -58 l 69 -58 l 69 -154 b 315 -333 69 -258 149 -333 b 696 -42 529 -333 649 -210 l 911 722 l 585 722 z "},"z":{"ha":807,"x_min":0,"x_max":0,"o":"m 543 486 l 57 389 l 57 0 l 751 0 l 751 236 l 283 236 l 738 333 l 738 722 l 71 722 l 71 486 z "},"{":{"ha":640,"x_min":0,"x_max":0,"o":"m 557 -42 b 460 56 499 -42 460 -3 l 460 194 b 265 396 460 311 382 390 l 113 403 l 265 410 b 460 611 382 415 460 494 l 460 736 b 557 833 460 794 499 833 l 640 833 l 640 1042 l 349 1042 b 154 847 232 1042 154 964 l 154 639 b 57 542 154 581 115 542 l 43 542 l 43 264 l 57 264 b 154 167 115 264 154 225 l 154 -56 b 349 -250 154 -172 232 -250 l 640 -250 l 640 -42 z "},"|":{"ha":447,"x_min":0,"x_max":0,"o":"m 85 1042 l 85 -319 l 363 -319 l 363 1042 z "},"}":{"ha":640,"x_min":0,"x_max":0,"o":"m 293 -250 b 488 -56 410 -250 488 -172 l 488 167 b 585 264 488 225 526 264 l 599 264 l 599 542 l 585 542 b 488 639 526 542 488 581 l 488 847 b 293 1042 488 964 410 1042 l 1 1042 l 1 833 l 85 833 b 182 736 143 833 182 794 l 182 611 b 376 410 182 494 260 415 l 529 403 l 376 396 b 182 194 260 390 182 311 l 182 56 b 85 -42 182 -3 143 -42 l 1 -42 l 1 -250 z "},"~":{"ha":878,"x_min":0,"x_max":0,"o":"m 238 347 b 608 208 335 347 474 208 b 835 319 676 208 768 253 l 756 528 b 626 472 725 496 674 472 b 271 611 533 472 404 611 b 43 500 203 611 110 567 l 119 292 b 238 347 153 324 199 347 z "},"¡":{"ha":514,"x_min":0,"x_max":0,"o":"m 431 542 b 257 708 431 639 357 708 b 83 542 156 708 83 639 b 257 375 83 444 156 375 b 431 542 357 375 431 444 z m 97 -42 l 97 -319 l 417 -319 l 417 -42 l 333 319 l 181 319 z "},"¢":{"ha":885,"x_min":0,"x_max":0,"o":"m 565 -15 b 849 285 717 22 832 138 l 557 319 b 461 236 547 271 507 236 b 363 361 403 236 363 289 b 461 486 363 433 404 486 b 557 403 507 486 547 451 l 849 440 b 565 738 832 586 717 700 l 565 861 l 301 861 l 301 725 b 43 361 146 671 43 535 b 301 -1 43 189 147 53 l 301 -167 l 565 -167 z "},"£":{"ha":975,"x_min":0,"x_max":0,"o":"m 188 417 b 43 333 172 372 113 338 l 43 0 l 932 0 l 932 250 l 149 250 b 511 417 329 275 481 313 l 793 417 l 793 597 l 529 597 l 529 694 b 585 771 529 739 553 771 b 654 688 618 771 647 736 l 932 731 b 553 1035 915 907 756 1035 b 196 708 342 1035 196 897 l 196 597 l 57 597 l 57 417 z "},"¤":{"ha":997,"x_min":0,"x_max":0,"o":"m 404 361 b 501 486 404 436 443 486 b 599 361 560 486 599 436 b 501 236 599 286 560 236 b 404 361 443 236 404 286 z m 696 686 b 501 722 639 710 575 722 b 307 688 429 722 363 710 l 238 778 l 54 639 l 129 538 b 85 361 100 488 85 428 b 129 183 85 294 100 235 l 43 79 l 224 -56 l 307 33 b 501 0 363 11 429 0 b 696 35 574 0 639 13 l 765 -56 l 954 79 l 872 183 b 918 361 901 235 918 294 b 872 538 918 428 901 488 l 950 639 l 765 778 z "},"¥":{"ha":1118,"x_min":0,"x_max":0,"o":"m 144 308 l 383 308 l 383 250 l 144 250 l 144 111 l 383 111 l 383 0 l 744 0 l 744 111 l 978 111 l 978 250 l 744 250 l 744 308 l 978 308 l 978 447 l 813 447 l 1103 1000 l 710 1000 l 564 611 l 403 1000 l 15 1000 l 313 447 l 144 447 z "},"§":{"ha":918,"x_min":0,"x_max":0,"o":"m 522 329 b 411 356 503 333 429 351 b 328 418 363 367 328 390 b 369 464 328 438 344 460 b 522 425 394 457 497 432 b 578 375 554 417 578 397 b 522 329 578 353 554 333 z m 536 10 b 458 -35 536 -17 501 -35 b 342 56 399 -35 350 3 l 88 19 b 444 -215 106 -117 251 -215 b 814 71 657 -215 814 -94 b 697 269 814 172 765 232 b 869 461 800 299 869 368 b 546 681 869 610 690 649 b 369 764 450 701 369 719 b 443 813 369 792 400 813 b 550 721 501 813 543 774 l 808 757 b 450 979 772 903 633 979 b 92 708 231 979 92 871 b 193 518 92 610 133 553 b 50 332 106 489 50 419 b 356 106 50 178 218 138 b 536 10 453 82 536 63 z "},"¨":{"ha":767,"x_min":0,"x_max":0,"o":"m 43 903 b 189 764 43 822 104 764 b 335 903 274 764 335 822 b 189 1042 335 983 274 1042 b 43 903 104 1042 43 983 z m 432 903 b 578 764 432 822 493 764 b 724 903 663 764 724 822 b 578 1042 724 983 663 1042 b 432 903 493 1042 432 983 z "},"©":{"ha":1474,"x_min":0,"x_max":0,"o":"m 251 368 b 738 840 251 651 446 840 b 1224 368 1029 840 1224 651 b 738 -118 1224 76 1029 -118 b 251 368 446 -118 251 76 z m 1100 439 b 740 736 1081 611 931 736 b 372 361 526 736 372 579 b 744 -14 372 136 533 -14 b 1096 279 936 -14 1083 110 l 886 317 b 749 181 872 238 817 181 b 608 361 671 181 608 257 b 749 542 608 469 672 542 b 886 407 817 542 872 485 z m 43 368 b 738 -299 43 -32 321 -299 b 1432 368 1154 -299 1432 -32 b 738 1021 1432 760 1154 1021 b 43 368 321 1021 43 760 z "},"«":{"ha":1056,"x_min":0,"x_max":0,"o":"m 583 722 l 265 722 l 43 375 l 265 0 l 583 0 l 349 375 z m 1014 722 l 696 722 l 474 375 l 696 0 l 1014 0 l 779 375 z "},"¬":{"ha":892,"x_min":0,"x_max":0,"o":"m 611 97 l 835 97 l 835 556 l 43 556 l 43 306 l 611 306 z "},"®":{"ha":1474,"x_min":0,"x_max":0,"o":"m 251 368 b 738 840 251 651 446 840 b 1224 368 1029 840 1224 651 b 738 -118 1224 76 1029 -118 b 251 368 446 -118 251 76 z m 736 583 b 842 493 808 583 842 547 b 736 403 842 435 797 403 l 654 403 l 654 583 z m 43 368 b 738 -299 43 -32 321 -299 b 1432 368 1154 -299 1432 -32 b 738 1021 1432 760 1154 1021 b 43 368 321 1021 43 760 z m 914 299 b 1071 500 1011 333 1071 406 b 783 722 1071 633 956 722 l 432 722 l 432 14 l 654 14 l 654 278 l 708 278 l 807 14 l 1058 14 z "},"¯":{"ha":600,"x_min":0,"x_max":0,"o":"m 557 1000 l 43 1000 l 43 819 l 557 819 z "},"°":{"ha":781,"x_min":0,"x_max":0,"o":"m 390 438 b 738 757 599 438 738 565 b 390 1076 738 949 599 1076 b 43 757 182 1076 43 949 b 390 438 43 565 182 438 z m 390 882 b 515 757 465 882 515 832 b 390 632 515 682 465 632 b 265 757 315 632 265 682 b 390 882 265 832 315 882 z "},"±":{"ha":739,"x_min":0,"x_max":0,"o":"m 43 194 l 43 0 l 696 0 l 696 194 z m 488 278 l 488 403 l 696 403 l 696 597 l 488 597 l 488 722 l 251 722 l 251 597 l 43 597 l 43 403 l 251 403 l 251 278 z "},"´":{"ha":499,"x_min":0,"x_max":0,"o":"m 469 1042 l 196 1042 l 43 792 l 251 792 z "},"¶":{"ha":1225,"x_min":0,"x_max":0,"o":"m 1154 778 l 1154 1000 l 363 1000 b 43 694 172 1000 44 878 b 363 389 42 511 169 389 l 363 -278 l 640 -278 l 640 778 l 738 778 l 738 -278 l 1015 -278 l 1015 778 z "},"·":{"ha":433,"x_min":0,"x_max":0,"o":"m 217 278 b 390 444 318 278 390 347 b 217 611 390 542 318 611 b 43 444 117 611 43 542 b 217 278 43 347 117 278 z "},"¸":{"ha":431,"x_min":0,"x_max":0,"o":"m 154 -181 b 224 -222 196 -181 224 -197 b 179 -264 224 -247 207 -264 b 113 -222 151 -264 125 -247 l 43 -292 b 197 -375 68 -342 129 -375 b 388 -239 311 -375 388 -321 b 251 -111 388 -162 333 -111 l 279 42 l 126 42 l 85 -181 z "},"»":{"ha":1054,"x_min":0,"x_max":0,"o":"m 582 375 l 360 722 l 42 722 l 276 375 l 42 0 l 360 0 z m 1013 375 l 790 722 l 472 722 l 707 375 l 472 0 l 790 0 z "},"¿":{"ha":932,"x_min":0,"x_max":0,"o":"m 335 361 b 210 203 335 269 282 236 b 43 -43 113 158 43 68 b 449 -340 43 -218 215 -340 b 890 -4 699 -340 875 -200 l 571 54 b 464 -76 563 -22 522 -76 b 390 -7 422 -76 390 -47 b 474 92 390 42 438 69 b 613 361 575 157 613 229 z m 654 556 b 481 722 654 653 581 722 b 307 556 379 722 307 653 b 481 389 307 458 379 389 b 654 556 581 389 654 458 z "},"À":{"ha":1117,"x_min":0,"x_max":0,"o":"m 663 375 l 453 375 l 557 890 z m 403 125 l 714 125 l 739 1 l 1115 1 l 876 1000 l 238 1000 l 1 0 l 378 0 z m 660 1097 l 499 1319 l 224 1319 l 443 1097 z "},"Á":{"ha":1117,"x_min":0,"x_max":0,"o":"m 663 375 l 453 375 l 557 890 z m 403 125 l 714 125 l 739 1 l 1115 1 l 876 1000 l 238 1000 l 1 0 l 378 0 z m 592 1319 l 431 1097 l 647 1097 l 867 1319 z "},"Â":{"ha":1117,"x_min":0,"x_max":0,"o":"m 663 375 l 453 375 l 557 890 z m 403 125 l 714 125 l 739 1 l 1115 1 l 876 1000 l 238 1000 l 1 0 l 378 0 z m 639 1097 l 833 1097 l 738 1319 l 376 1319 l 278 1097 l 472 1097 l 556 1278 z "},"Ã":{"ha":1117,"x_min":0,"x_max":0,"o":"m 663 375 l 453 375 l 557 890 z m 403 125 l 714 125 l 739 1 l 1115 1 l 876 1000 l 238 1000 l 1 0 l 378 0 z m 442 1194 b 644 1125 486 1194 542 1125 b 861 1285 740 1125 833 1199 l 715 1357 b 649 1306 700 1326 674 1306 b 443 1375 601 1306 542 1375 b 236 1215 353 1375 264 1303 l 381 1143 b 442 1194 397 1174 417 1194 z "},"Ä":{"ha":1117,"x_min":0,"x_max":0,"o":"m 663 375 l 453 375 l 557 890 z m 403 125 l 714 125 l 739 1 l 1115 1 l 876 1000 l 238 1000 l 1 0 l 378 0 z m 361 1083 b 507 1229 447 1083 507 1144 b 361 1375 507 1314 447 1375 b 215 1229 278 1375 215 1314 b 361 1083 215 1144 278 1083 z m 750 1083 b 896 1229 836 1083 896 1144 b 750 1375 896 1314 836 1375 b 604 1229 667 1375 604 1314 b 750 1083 604 1144 667 1083 z "},"Å":{"ha":1117,"x_min":0,"x_max":0,"o":"m 663 375 l 453 375 l 557 890 z m 557 1299 b 606 1250 586 1299 606 1279 b 557 1201 606 1221 586 1201 b 508 1250 528 1201 508 1221 b 557 1299 508 1279 528 1299 z m 403 125 l 714 125 l 739 1 l 1115 1 l 876 1000 l 238 1000 l 1 0 l 378 0 z m 557 1063 b 772 1250 686 1063 772 1138 b 557 1438 772 1363 686 1438 b 342 1250 428 1438 342 1363 b 557 1063 342 1138 428 1063 z "},"Æ":{"ha":1456,"x_min":0,"x_max":0,"o":"m 749 361 l 540 361 l 749 900 z m 1344 389 l 1344 625 l 1067 625 l 1067 722 l 1400 722 l 1400 1000 l 428 1000 l 1 0 l 400 0 l 449 125 l 747 125 l 747 0 l 1414 0 l 1414 278 l 1067 278 l 1067 389 z "},"Ç":{"ha":1169,"x_min":0,"x_max":0,"o":"m 571 -181 b 640 -222 613 -181 640 -197 b 596 -264 640 -247 624 -264 b 529 -222 568 -264 542 -247 l 460 -292 b 614 -375 485 -342 546 -375 b 804 -239 728 -375 804 -321 b 668 -111 804 -162 750 -111 l 682 -29 b 1128 386 935 0 1117 165 l 793 421 b 610 271 776 333 699 271 b 404 500 488 271 404 363 b 611 729 404 638 486 729 b 792 579 700 729 776 667 l 1124 614 b 599 1035 1107 858 886 1035 b 43 500 276 1035 43 810 b 529 -31 43 213 243 -1 l 501 -181 z "},"È":{"ha":863,"x_min":0,"x_max":0,"o":"m 432 278 l 432 389 l 751 389 l 751 625 l 432 625 l 432 722 l 807 722 l 807 1000 l 85 1000 l 85 0 l 821 0 l 821 278 z m 333 1097 l 550 1097 l 389 1319 l 114 1319 z "},"É":{"ha":863,"x_min":0,"x_max":0,"o":"m 432 278 l 432 389 l 751 389 l 751 625 l 432 625 l 432 722 l 807 722 l 807 1000 l 85 1000 l 85 0 l 821 0 l 821 278 z m 757 1319 l 482 1319 l 319 1097 l 538 1097 z "},"Ê":{"ha":863,"x_min":0,"x_max":0,"o":"m 432 278 l 432 389 l 751 389 l 751 625 l 432 625 l 432 722 l 807 722 l 807 1000 l 85 1000 l 85 0 l 821 0 l 821 278 z m 446 1278 l 529 1097 l 724 1097 l 626 1319 l 265 1319 l 168 1097 l 363 1097 z "},"Ë":{"ha":863,"x_min":0,"x_max":0,"o":"m 432 278 l 432 389 l 751 389 l 751 625 l 432 625 l 432 722 l 807 722 l 807 1000 l 85 1000 l 85 0 l 821 0 l 821 278 z m 251 1083 b 397 1229 336 1083 397 1144 b 251 1375 397 1314 336 1375 b 106 1229 167 1375 106 1314 b 251 1083 106 1144 167 1083 z m 640 1083 b 786 1229 725 1083 786 1144 b 640 1375 786 1314 725 1375 b 494 1229 556 1375 494 1314 b 640 1083 494 1144 556 1083 z "},"Ì":{"ha":529,"x_min":0,"x_max":0,"o":"m 444 1000 l 83 1000 l 83 0 l 444 0 z m 151 1097 l 368 1097 l 207 1319 l -68 1319 z "},"Í":{"ha":535,"x_min":0,"x_max":0,"o":"m 446 1000 l 85 1000 l 85 0 l 446 0 z m 576 1319 l 301 1319 l 139 1097 l 357 1097 z "},"Î":{"ha":531,"x_min":0,"x_max":0,"o":"m 446 1000 l 85 1000 l 85 0 l 446 0 z m 265 1278 l 349 1097 l 543 1097 l 446 1319 l 85 1319 l -12 1097 l 182 1097 z "},"Ï":{"ha":517,"x_min":0,"x_max":0,"o":"m 439 1000 l 78 1000 l 78 0 l 439 0 z m 64 1083 b 210 1229 149 1083 210 1144 b 64 1375 210 1314 149 1375 b -82 1229 -21 1375 -82 1314 b 64 1083 -82 1144 -21 1083 z m 453 1083 b 599 1229 538 1083 599 1144 b 453 1375 599 1314 538 1375 b 307 1229 368 1375 307 1314 b 453 1083 307 1144 368 1083 z "},"Ñ":{"ha":1156,"x_min":0,"x_max":0,"o":"m 640 1000 l 85 1000 l 85 0 l 404 0 l 404 840 l 515 0 l 1071 0 l 1071 1000 l 751 1000 l 751 157 z m 465 1194 b 669 1125 511 1194 567 1125 b 886 1285 765 1125 858 1199 l 740 1357 b 672 1306 725 1326 697 1306 b 468 1375 626 1306 567 1375 b 261 1215 376 1375 289 1303 l 406 1143 b 465 1194 421 1174 440 1194 z "},"Ò":{"ha":1224,"x_min":0,"x_max":0,"o":"m 43 500 b 613 -35 43 179 271 -35 b 1182 500 954 -35 1182 179 b 613 1035 1182 821 954 1035 b 43 500 271 1035 43 821 z m 404 500 b 613 729 404 638 488 729 b 821 500 738 729 821 638 b 613 271 821 363 738 271 b 404 500 488 271 404 363 z m 500 1097 l 717 1097 l 556 1319 l 281 1319 z "},"Ó":{"ha":1224,"x_min":0,"x_max":0,"o":"m 43 500 b 613 -35 43 179 271 -35 b 1182 500 954 -35 1182 179 b 613 1035 1182 821 954 1035 b 43 500 271 1035 43 821 z m 404 500 b 613 729 404 638 488 729 b 821 500 738 729 821 638 b 613 271 821 363 738 271 b 404 500 488 271 404 363 z m 924 1319 l 649 1319 l 486 1097 l 704 1097 z "},"Ô":{"ha":1224,"x_min":0,"x_max":0,"o":"m 404 500 b 613 729 404 638 488 729 b 821 500 738 729 821 638 b 613 271 821 363 738 271 b 404 500 488 271 404 363 z m 43 500 b 613 -35 43 179 271 -35 b 1182 500 954 -35 1182 179 b 613 1035 1182 821 954 1035 b 43 500 271 1035 43 821 z m 696 1097 l 890 1097 l 793 1319 l 432 1319 l 335 1097 l 529 1097 l 613 1278 z "},"Õ":{"ha":1224,"x_min":0,"x_max":0,"o":"m 404 500 b 613 729 404 638 488 729 b 821 500 738 729 821 638 b 613 271 821 363 738 271 b 404 500 488 271 404 363 z m 43 500 b 613 -35 43 179 271 -35 b 1182 500 954 -35 1182 179 b 613 1035 1182 821 954 1035 b 43 500 271 1035 43 821 z m 497 1194 b 701 1125 543 1194 599 1125 b 918 1285 797 1125 890 1199 l 772 1357 b 704 1306 757 1326 729 1306 b 500 1375 658 1306 599 1375 b 293 1215 408 1375 321 1303 l 438 1143 b 497 1194 453 1174 472 1194 z "},"Ö":{"ha":1224,"x_min":0,"x_max":0,"o":"m 43 500 b 613 -35 43 179 271 -35 b 1182 500 954 -35 1182 179 b 613 1035 1182 821 954 1035 b 43 500 271 1035 43 821 z m 404 500 b 613 729 404 638 488 729 b 821 500 738 729 821 638 b 613 271 821 363 738 271 b 404 500 488 271 404 363 z m 418 1083 b 564 1229 503 1083 564 1144 b 418 1375 564 1314 503 1375 b 272 1229 333 1375 272 1314 b 418 1083 272 1144 333 1083 z m 807 1083 b 953 1229 892 1083 953 1144 b 807 1375 953 1314 892 1375 b 661 1229 722 1375 661 1314 b 807 1083 661 1144 722 1083 z "},"×":{"ha":697,"x_min":0,"x_max":0,"o":"m 349 236 l 474 111 l 654 292 l 529 417 l 656 543 l 474 722 l 349 597 l 224 722 l 43 542 l 168 417 l 43 292 l 224 111 z "},"Ø":{"ha":1196,"x_min":0,"x_max":0,"o":"m 439 364 b 404 500 417 401 404 447 b 599 729 404 633 486 729 b 629 726 608 729 619 728 z m 757 636 b 793 500 779 599 793 553 b 599 271 793 367 711 271 b 567 274 588 271 576 271 z m 1154 500 b 919 944 1154 692 1064 850 l 1051 1194 l 876 1194 l 779 1008 b 599 1035 722 1025 663 1035 b 43 500 276 1035 43 810 b 276 56 43 308 132 149 l 146 -194 l 321 -194 l 418 -8 b 599 -35 474 -25 535 -35 b 1154 500 921 -35 1154 190 z "},"Ù":{"ha":1128,"x_min":0,"x_max":0,"o":"m 696 438 b 564 271 696 338 643 271 b 432 438 469 278 432 358 l 432 1000 l 71 1000 l 71 424 b 564 -35 71 149 268 -35 b 1057 424 860 -35 1057 149 l 1057 1000 l 696 1000 z m 451 1097 l 668 1097 l 507 1319 l 232 1319 z "},"Ú":{"ha":1128,"x_min":0,"x_max":0,"o":"m 696 438 b 564 271 696 338 643 271 b 432 438 469 278 432 358 l 432 1000 l 71 1000 l 71 424 b 564 -35 71 149 268 -35 b 1057 424 860 -35 1057 149 l 1057 1000 l 696 1000 z m 875 1319 l 600 1319 l 438 1097 l 656 1097 z "},"Û":{"ha":1128,"x_min":0,"x_max":0,"o":"m 696 438 b 564 271 696 338 643 271 b 432 438 469 278 432 358 l 432 1000 l 71 1000 l 71 424 b 564 -35 71 149 268 -35 b 1057 424 860 -35 1057 149 l 1057 1000 l 696 1000 z m 564 1278 l 647 1097 l 842 1097 l 744 1319 l 383 1319 l 286 1097 l 481 1097 z "},"Ü":{"ha":1128,"x_min":0,"x_max":0,"o":"m 696 438 b 564 271 696 338 643 271 b 432 438 469 278 432 358 l 432 1000 l 71 1000 l 71 424 b 564 -35 71 149 268 -35 b 1057 424 860 -35 1057 149 l 1057 1000 l 696 1000 z m 369 1083 b 515 1229 454 1083 515 1144 b 369 1375 515 1314 454 1375 b 224 1229 285 1375 224 1314 b 369 1083 224 1144 285 1083 z m 758 1083 b 904 1229 843 1083 904 1144 b 758 1375 904 1314 843 1375 b 613 1229 674 1375 613 1314 b 758 1083 613 1144 674 1083 z "},"Ý":{"ha":1032,"x_min":0,"x_max":0,"o":"m 653 1000 l 521 639 l 374 1000 l 0 1000 l 340 333 l 340 0 l 701 0 l 701 333 l 1032 1000 z m 828 1319 l 553 1319 l 392 1097 l 608 1097 z "},"ß":{"ha":1126,"x_min":0,"x_max":0,"o":"m 668 694 b 569 611 668 644 629 611 l 500 611 l 500 431 l 564 431 b 710 300 651 431 710 378 b 622 194 710 239 672 194 b 535 219 599 194 564 204 l 486 19 b 738 -35 554 -11 660 -35 b 1071 258 931 -35 1069 90 b 717 553 1071 432 922 539 b 988 751 874 563 988 619 b 556 1035 986 910 821 1035 b 71 667 264 1035 71 888 l 71 0 l 432 0 l 432 681 b 550 803 432 754 479 803 b 668 694 621 803 668 760 z "},"à":{"ha":1007,"x_min":0,"x_max":0,"o":"m 460 250 b 363 361 403 250 363 297 b 460 472 363 425 403 472 b 557 361 517 472 557 425 b 460 250 557 297 517 250 z m 558 501 b 326 750 528 654 442 750 b 43 361 157 750 43 594 b 326 -28 43 128 157 -28 b 558 221 442 -28 528 68 l 558 153 b 771 -28 558 18 653 -28 b 978 117 906 -28 978 31 l 978 250 l 922 250 l 922 118 b 899 94 922 104 913 94 b 878 118 886 94 878 104 l 878 722 l 558 722 z m 374 806 l 582 806 l 429 1056 l 156 1056 z "},"á":{"ha":1007,"x_min":0,"x_max":0,"o":"m 460 250 b 363 361 403 250 363 297 b 460 472 363 425 403 472 b 557 361 517 472 557 425 b 460 250 557 297 517 250 z m 558 501 b 326 750 528 654 442 750 b 43 361 157 750 43 594 b 326 -28 43 128 157 -28 b 558 221 442 -28 528 68 l 558 153 b 771 -28 558 18 653 -28 b 978 117 906 -28 978 31 l 978 250 l 922 250 l 922 118 b 899 94 922 104 913 94 b 878 118 886 94 878 104 l 878 722 l 558 722 z m 336 806 l 544 806 l 763 1056 l 489 1056 z "},"â":{"ha":1007,"x_min":0,"x_max":0,"o":"m 460 250 b 363 361 403 250 363 297 b 460 472 363 425 403 472 b 557 361 517 472 557 425 b 460 250 557 297 517 250 z m 558 501 b 326 750 528 654 442 750 b 43 361 157 750 43 594 b 326 -28 43 128 157 -28 b 558 221 442 -28 528 68 l 558 153 b 771 -28 558 18 653 -28 b 978 117 906 -28 978 31 l 978 250 l 922 250 l 922 118 b 899 94 922 104 913 94 b 878 118 886 94 878 104 l 878 722 l 558 722 z m 461 1000 l 544 806 l 749 806 l 642 1056 l 281 1056 l 174 806 l 378 806 z "},"ã":{"ha":1007,"x_min":0,"x_max":0,"o":"m 460 250 b 363 361 403 250 363 297 b 460 472 363 425 403 472 b 557 361 517 472 557 425 b 460 250 557 297 517 250 z m 558 501 b 326 750 528 654 442 750 b 43 361 157 750 43 594 b 326 -28 43 128 157 -28 b 558 221 442 -28 528 68 l 558 153 b 771 -28 558 18 653 -28 b 978 117 906 -28 978 31 l 978 250 l 922 250 l 922 118 b 899 94 922 104 913 94 b 878 118 886 94 878 104 l 878 722 l 558 722 z m 360 889 b 564 819 406 889 461 819 b 781 979 660 819 753 893 l 635 1051 b 567 1000 619 1021 592 1000 b 363 1069 521 1000 461 1069 b 156 910 271 1069 183 997 l 300 838 b 360 889 315 868 335 889 z "},"ä":{"ha":1007,"x_min":0,"x_max":0,"o":"m 460 250 b 363 361 403 250 363 297 b 460 472 363 425 403 472 b 557 361 517 472 557 425 b 460 250 557 297 517 250 z m 558 501 b 326 750 528 654 442 750 b 43 361 157 750 43 594 b 326 -28 43 128 157 -28 b 558 221 442 -28 528 68 l 558 153 b 771 -28 558 18 653 -28 b 978 117 906 -28 978 31 l 978 250 l 922 250 l 922 118 b 899 94 922 104 913 94 b 878 118 886 94 878 104 l 878 722 l 558 722 z m 121 935 b 267 796 121 854 182 796 b 413 935 351 796 413 854 b 267 1074 413 1015 351 1074 b 121 935 182 1074 121 1015 z m 510 935 b 656 796 510 854 571 796 b 801 935 740 796 801 854 b 656 1074 801 1015 740 1074 b 510 935 571 1074 510 1015 z "},"å":{"ha":1007,"x_min":0,"x_max":0,"o":"m 460 250 b 363 361 403 250 363 297 b 460 472 363 425 403 472 b 557 361 517 472 557 425 b 460 250 557 297 517 250 z m 461 1069 b 531 1000 503 1069 531 1042 b 461 931 531 958 503 931 b 392 1000 419 931 392 958 b 461 1069 392 1042 419 1069 z m 558 501 b 326 750 528 654 442 750 b 43 361 157 750 43 594 b 326 -28 43 128 157 -28 b 558 221 442 -28 528 68 l 558 153 b 771 -28 558 18 653 -28 b 978 117 906 -28 978 31 l 978 250 l 922 250 l 922 118 b 899 94 922 104 913 94 b 878 118 886 94 878 104 l 878 722 l 558 722 z m 461 792 b 697 1000 603 792 697 875 b 461 1208 697 1125 603 1208 b 225 1000 319 1208 225 1125 b 461 792 225 875 319 792 z "},"æ":{"ha":1433,"x_min":0,"x_max":0,"o":"m 472 500 b 583 361 539 500 583 444 b 472 222 583 278 539 222 b 361 361 406 222 361 278 b 472 500 361 444 406 500 z m 896 417 b 985 514 907 483 940 514 b 1072 417 1032 514 1067 469 z m 1040 -28 b 1363 213 1178 -28 1319 74 l 1093 250 b 1003 194 1083 218 1046 194 b 897 278 949 194 907 229 l 1388 278 b 1392 368 1390 292 1392 346 b 1056 750 1392 590 1243 750 b 764 506 910 750 801 653 l 764 722 l 583 722 l 583 496 b 332 750 551 649 457 750 b 42 361 158 750 42 594 b 332 -28 42 128 158 -28 b 583 229 457 -28 550 69 l 583 0 l 764 0 l 764 222 b 1040 -28 800 72 903 -28 z "},"ç":{"ha":885,"x_min":0,"x_max":0,"o":"m 403 -181 b 472 -222 444 -181 472 -197 b 428 -264 472 -247 456 -264 b 361 -222 400 -264 374 -247 l 292 -292 b 446 -375 317 -342 378 -375 b 636 -239 560 -375 636 -321 b 500 -111 636 -162 582 -111 l 515 -24 b 849 285 692 -1 831 121 l 557 319 b 461 236 547 271 507 236 b 363 361 403 236 363 289 b 461 486 363 433 404 486 b 557 403 507 486 547 451 l 849 440 b 457 750 829 619 660 750 b 43 361 217 750 43 586 b 364 -19 43 167 175 18 l 333 -181 z "},"è":{"ha":906,"x_min":0,"x_max":0,"o":"m 368 431 b 456 528 379 490 407 528 b 543 431 507 528 543 479 z m 557 250 b 474 194 546 218 519 194 b 372 278 421 194 389 225 l 858 278 b 863 357 861 290 863 335 b 460 750 863 593 707 750 b 43 361 215 750 43 594 b 453 -28 43 128 210 -28 b 835 215 649 -28 807 75 z m 372 806 l 581 806 l 428 1056 l 154 1056 z "},"é":{"ha":906,"x_min":0,"x_max":0,"o":"m 368 431 b 456 528 379 490 407 528 b 543 431 507 528 543 479 z m 557 250 b 474 194 546 218 519 194 b 372 278 421 194 389 225 l 858 278 b 863 357 861 290 863 335 b 460 750 863 593 707 750 b 43 361 215 750 43 594 b 453 -28 43 128 210 -28 b 835 215 649 -28 807 75 z m 335 806 l 543 806 l 761 1056 l 488 1056 z "},"ê":{"ha":906,"x_min":0,"x_max":0,"o":"m 368 431 b 456 528 379 490 407 528 b 543 431 507 528 543 479 z m 557 250 b 474 194 546 218 519 194 b 372 278 421 194 389 225 l 858 278 b 863 357 861 290 863 335 b 460 750 863 593 707 750 b 43 361 215 750 43 594 b 453 -28 43 128 210 -28 b 835 215 649 -28 807 75 z m 460 1000 l 543 806 l 747 806 l 640 1056 l 279 1056 l 172 806 l 376 806 z "},"ë":{"ha":906,"x_min":0,"x_max":0,"o":"m 368 431 b 456 528 379 490 407 528 b 543 431 507 528 543 479 z m 557 250 b 474 194 546 218 519 194 b 372 278 421 194 389 225 l 858 278 b 863 357 861 290 863 335 b 460 750 863 593 707 750 b 43 361 215 750 43 594 b 453 -28 43 128 210 -28 b 835 215 649 -28 807 75 z m 119 935 b 265 796 119 854 181 796 b 411 935 350 796 411 854 b 265 1074 411 1015 350 1074 b 119 935 181 1074 119 1015 z m 508 935 b 654 796 508 854 569 796 b 800 935 739 796 800 854 b 654 1074 800 1015 739 1074 b 508 935 569 1074 508 1015 z "},"ì":{"ha":467,"x_min":0,"x_max":0,"o":"m 397 722 l 78 722 l 78 0 l 397 0 z m -68 1056 l 150 806 l 358 806 l 206 1056 z "},"í":{"ha":464,"x_min":0,"x_max":0,"o":"m 390 722 l 71 722 l 71 0 l 390 0 z m 260 1056 l 106 806 l 315 806 l 533 1056 z "},"î":{"ha":467,"x_min":0,"x_max":0,"o":"m 393 722 l 74 722 l 74 0 l 393 0 z m 150 806 l 233 1000 l 317 806 l 521 806 l 414 1056 l 53 1056 l -54 806 z "},"ï":{"ha":461,"x_min":0,"x_max":0,"o":"m 390 722 l 71 722 l 71 0 l 390 0 z m -110 935 b 36 796 -110 854 -49 796 b 182 935 121 796 182 854 b 36 1074 182 1015 121 1074 b -110 935 -49 1074 -110 1015 z m 279 935 b 425 796 279 854 340 796 b 571 935 510 796 571 854 b 425 1074 571 1015 510 1074 b 279 935 340 1074 279 1015 z "},"ñ":{"ha":892,"x_min":0,"x_max":0,"o":"m 453 472 b 515 389 490 472 515 439 l 515 0 l 835 0 l 835 472 b 614 750 835 633 740 750 b 390 522 501 750 421 660 l 390 722 l 71 722 l 71 0 l 390 0 l 390 389 b 453 472 390 439 415 472 z m 338 889 b 542 819 383 889 439 819 b 758 979 638 819 731 893 l 613 1051 b 544 1000 597 1021 569 1000 b 340 1069 499 1000 439 1069 b 133 910 249 1069 161 997 l 278 838 b 338 889 293 868 313 889 z "},"ò":{"ha":919,"x_min":0,"x_max":0,"o":"m 876 361 b 460 750 876 594 710 750 b 43 361 210 750 43 594 b 460 -28 43 128 210 -28 b 876 361 710 -28 876 128 z m 557 361 b 460 250 557 294 518 250 b 363 361 401 250 363 294 b 460 472 363 428 401 472 b 557 361 518 472 557 428 z m 154 1056 l 372 806 l 581 806 l 428 1056 z "},"ó":{"ha":919,"x_min":0,"x_max":0,"o":"m 876 361 b 460 750 876 594 710 750 b 43 361 210 750 43 594 b 460 -28 43 128 210 -28 b 876 361 710 -28 876 128 z m 557 361 b 460 250 557 294 518 250 b 363 361 401 250 363 294 b 460 472 363 428 401 472 b 557 361 518 472 557 428 z m 488 1056 l 335 806 l 543 806 l 761 1056 z "},"ô":{"ha":919,"x_min":0,"x_max":0,"o":"m 557 361 b 460 250 557 294 518 250 b 363 361 401 250 363 294 b 460 472 363 428 401 472 b 557 361 518 472 557 428 z m 876 361 b 460 750 876 594 710 750 b 43 361 210 750 43 594 b 460 -28 43 128 210 -28 b 876 361 710 -28 876 128 z m 460 1000 l 543 806 l 747 806 l 640 1056 l 279 1056 l 172 806 l 376 806 z "},"õ":{"ha":919,"x_min":0,"x_max":0,"o":"m 557 361 b 460 250 557 294 518 250 b 363 361 401 250 363 294 b 460 472 363 428 401 472 b 557 361 518 472 557 428 z m 876 361 b 460 750 876 594 710 750 b 43 361 210 750 43 594 b 460 -28 43 128 210 -28 b 876 361 710 -28 876 128 z m 358 889 b 563 819 404 889 460 819 b 779 979 658 819 751 893 l 633 1051 b 565 1000 618 1021 590 1000 b 361 1069 519 1000 460 1069 b 154 910 269 1069 182 997 l 299 838 b 358 889 314 868 333 889 z "},"ö":{"ha":919,"x_min":0,"x_max":0,"o":"m 876 361 b 460 750 876 594 710 750 b 43 361 210 750 43 594 b 460 -28 43 128 210 -28 b 876 361 710 -28 876 128 z m 557 361 b 460 250 557 294 518 250 b 363 361 401 250 363 294 b 460 472 363 428 401 472 b 557 361 518 472 557 428 z m 119 935 b 265 796 119 854 181 796 b 411 935 350 796 411 854 b 265 1074 411 1015 350 1074 b 119 935 181 1074 119 1015 z m 508 935 b 654 796 508 854 569 796 b 800 935 739 796 800 854 b 654 1074 800 1015 739 1074 b 508 935 569 1074 508 1015 z "},"÷":{"ha":711,"x_min":0,"x_max":0,"o":"m 356 306 b 210 167 271 306 210 247 b 356 28 210 86 271 28 b 501 167 440 28 501 86 b 356 306 501 247 440 306 z m 43 347 l 668 347 l 668 569 l 43 569 z m 210 750 b 356 611 210 669 271 611 b 501 750 440 611 501 669 b 356 889 501 831 440 889 b 210 750 271 889 210 831 z "},"ø":{"ha":947,"x_min":0,"x_max":0,"o":"m 349 257 b 321 361 331 285 321 319 b 474 528 321 461 386 528 l 493 528 z m 599 464 b 626 361 617 436 626 401 b 474 194 626 261 565 194 b 456 196 467 194 461 194 z m 904 361 b 718 690 904 508 835 625 l 794 833 l 654 833 l 603 735 b 474 750 563 744 519 750 b 43 361 215 750 43 594 b 228 31 43 213 111 96 l 151 -111 l 293 -111 l 344 -12 b 474 -28 385 -22 428 -28 b 904 361 732 -28 904 128 z "},"ù":{"ha":892,"x_min":0,"x_max":0,"o":"m 439 250 b 376 333 401 250 376 283 l 376 722 l 57 722 l 57 250 b 278 -28 57 89 151 -28 b 501 200 389 -28 469 63 l 501 0 l 821 0 l 821 722 l 501 722 l 501 333 b 439 250 501 283 476 250 z m 133 1056 l 351 806 l 560 806 l 407 1056 z "},"ú":{"ha":892,"x_min":0,"x_max":0,"o":"m 439 250 b 376 333 401 250 376 283 l 376 722 l 57 722 l 57 250 b 278 -28 57 89 151 -28 b 501 200 389 -28 469 63 l 501 0 l 821 0 l 821 722 l 501 722 l 501 333 b 439 250 501 283 476 250 z m 467 1056 l 314 806 l 522 806 l 740 1056 z "},"û":{"ha":892,"x_min":0,"x_max":0,"o":"m 439 250 b 376 333 401 250 376 283 l 376 722 l 57 722 l 57 250 b 278 -28 57 89 151 -28 b 501 200 389 -28 469 63 l 501 0 l 821 0 l 821 722 l 501 722 l 501 333 b 439 250 501 283 476 250 z m 356 806 l 439 1000 l 522 806 l 726 806 l 619 1056 l 258 1056 l 151 806 z "},"ü":{"ha":892,"x_min":0,"x_max":0,"o":"m 439 250 b 376 333 401 250 376 283 l 376 722 l 57 722 l 57 250 b 278 -28 57 89 151 -28 b 501 200 389 -28 469 63 l 501 0 l 821 0 l 821 722 l 501 722 l 501 333 b 439 250 501 283 476 250 z m 99 935 b 244 796 99 854 160 796 b 390 935 329 796 390 854 b 244 1074 390 1015 329 1074 b 99 935 160 1074 99 1015 z m 488 935 b 633 796 488 854 549 796 b 779 935 718 796 779 854 b 633 1074 779 1015 718 1074 b 488 935 549 1074 488 1015 z "},"ý":{"ha":913,"x_min":0,"x_max":0,"o":"m 447 99 l 335 722 l 1 722 l 208 0 l 426 0 b 239 -235 382 -153 344 -235 b 125 -125 161 -235 125 -189 l 125 -58 l 69 -58 l 69 -154 b 315 -333 69 -258 149 -333 b 696 -42 529 -333 649 -210 l 911 722 l 585 722 z m 486 1056 l 333 806 l 542 806 l 760 1056 z "},"ÿ":{"ha":913,"x_min":0,"x_max":0,"o":"m 447 99 l 335 722 l 1 722 l 208 0 l 426 0 b 239 -235 382 -153 344 -235 b 125 -125 161 -235 125 -189 l 125 -58 l 69 -58 l 69 -154 b 315 -333 69 -258 149 -333 b 696 -42 529 -333 649 -210 l 911 722 l 585 722 z m 118 935 b 264 796 118 854 179 796 b 410 935 349 796 410 854 b 264 1074 410 1015 349 1074 b 118 935 179 1074 118 1015 z m 507 935 b 653 796 507 854 568 796 b 799 935 738 796 799 854 b 653 1074 799 1015 738 1074 b 507 935 568 1074 507 1015 z "},"Ā":{"ha":1117,"x_min":0,"x_max":0,"o":"m 663 375 l 453 375 l 557 890 z m 403 125 l 714 125 l 739 1 l 1115 1 l 876 1000 l 238 1000 l 1 0 l 378 0 z m 299 1306 l 299 1125 l 813 1125 l 813 1306 z "},"ā":{"ha":1007,"x_min":0,"x_max":0,"o":"m 460 250 b 363 361 403 250 363 297 b 460 472 363 425 403 472 b 557 361 517 472 557 425 b 460 250 557 297 517 250 z m 558 501 b 326 750 528 654 442 750 b 43 361 157 750 43 594 b 326 -28 43 128 157 -28 b 558 221 442 -28 528 68 l 558 153 b 771 -28 558 18 653 -28 b 978 117 906 -28 978 31 l 978 250 l 922 250 l 922 118 b 899 94 922 104 913 94 b 878 118 886 94 878 104 l 878 722 l 558 722 z m 176 1014 l 176 833 l 690 833 l 690 1014 z "},"Ă":{"ha":1117,"x_min":0,"x_max":0,"o":"m 663 375 l 453 375 l 557 890 z m 403 125 l 714 125 l 739 1 l 1115 1 l 876 1000 l 238 1000 l 1 0 l 378 0 z m 556 1097 b 792 1319 697 1097 792 1186 l 611 1319 b 556 1250 611 1278 589 1250 b 500 1319 522 1250 500 1278 l 319 1319 b 556 1097 319 1186 414 1097 z "},"ă":{"ha":1007,"x_min":0,"x_max":0,"o":"m 460 250 b 363 361 403 250 363 297 b 460 472 363 425 403 472 b 557 361 517 472 557 425 b 460 250 557 297 517 250 z m 558 501 b 326 750 528 654 442 750 b 43 361 157 750 43 594 b 326 -28 43 128 157 -28 b 558 221 442 -28 528 68 l 558 153 b 771 -28 558 18 653 -28 b 978 117 906 -28 978 31 l 978 250 l 922 250 l 922 118 b 899 94 922 104 913 94 b 878 118 886 94 878 104 l 878 722 l 558 722 z m 433 806 b 669 1056 604 806 669 900 l 489 1056 b 433 958 489 997 467 958 b 378 1056 400 958 378 997 l 197 1056 b 433 806 197 900 263 806 z "},"Ą":{"ha":1153,"x_min":0,"x_max":0,"o":"m 663 375 l 453 375 l 557 890 z m 947 1 b 804 -175 858 -32 804 -96 b 1151 -387 804 -299 943 -387 l 1151 -256 b 976 -133 1046 -256 976 -203 b 1111 1 976 -71 1031 -29 l 1115 1 l 876 1000 l 238 1000 l 1 0 l 378 0 l 403 125 l 714 125 l 739 1 z "},"ą":{"ha":1007,"x_min":0,"x_max":0,"o":"m 460 250 b 363 361 403 250 363 297 b 460 472 363 425 403 472 b 557 361 517 472 557 425 b 460 250 557 297 517 250 z m 674 -15 b 565 -175 606 -50 565 -107 b 913 -387 565 -299 704 -387 l 913 -256 b 738 -133 807 -256 738 -203 b 815 -25 738 -87 767 -53 b 978 117 921 -14 978 40 l 978 250 l 922 250 l 922 118 b 899 94 922 104 913 94 b 878 118 886 94 878 104 l 878 722 l 558 722 l 558 501 b 326 750 528 654 442 750 b 43 361 157 750 43 594 b 326 -28 43 128 157 -28 b 558 221 442 -28 528 68 l 558 153 b 674 -15 558 58 604 7 z "},"Ć":{"ha":1169,"x_min":0,"x_max":0,"o":"m 793 421 b 610 271 776 333 699 271 b 404 500 488 271 404 363 b 611 729 404 638 486 729 b 792 579 700 729 776 667 l 1124 614 b 599 1035 1107 858 886 1035 b 43 500 276 1035 43 810 b 599 -35 43 190 276 -35 b 1128 386 893 -35 1115 142 z m 635 1319 l 472 1097 l 690 1097 l 910 1319 z "},"ć":{"ha":885,"x_min":0,"x_max":0,"o":"m 849 440 b 457 750 829 619 660 750 b 43 361 217 750 43 586 b 457 -28 43 136 221 -28 b 849 285 660 -28 828 104 l 557 319 b 461 236 547 271 507 236 b 363 361 403 236 363 289 b 461 486 363 433 404 486 b 557 403 507 486 547 451 z m 472 1056 l 319 806 l 528 806 l 746 1056 z "},"Ĉ":{"ha":1169,"x_min":0,"x_max":0,"o":"m 793 421 b 610 271 776 333 699 271 b 404 500 488 271 404 363 b 611 729 404 638 486 729 b 792 579 700 729 776 667 l 1124 614 b 599 1035 1107 858 886 1035 b 43 500 276 1035 43 810 b 599 -35 43 190 276 -35 b 1128 386 893 -35 1115 142 z m 682 1097 l 876 1097 l 779 1319 l 418 1319 l 321 1097 l 515 1097 l 599 1278 z "},"ĉ":{"ha":885,"x_min":0,"x_max":0,"o":"m 849 440 b 457 750 829 619 660 750 b 43 361 217 750 43 586 b 457 -28 43 136 221 -28 b 849 285 660 -28 828 104 l 557 319 b 461 236 547 271 507 236 b 363 361 403 236 363 289 b 461 486 363 433 404 486 b 557 403 507 486 547 451 z m 361 806 l 444 1000 l 528 806 l 732 806 l 625 1056 l 264 1056 l 157 806 z "},"Ċ":{"ha":1169,"x_min":0,"x_max":0,"o":"m 793 421 b 610 271 776 333 699 271 b 404 500 488 271 404 363 b 611 729 404 638 486 729 b 792 579 700 729 776 667 l 1124 614 b 599 1035 1107 858 886 1035 b 43 500 276 1035 43 810 b 599 -35 43 190 276 -35 b 1128 386 893 -35 1115 142 z m 599 1097 b 758 1250 692 1097 758 1161 b 599 1403 758 1339 692 1403 b 439 1250 506 1403 439 1339 b 599 1097 439 1161 506 1097 z "},"ċ":{"ha":885,"x_min":0,"x_max":0,"o":"m 849 440 b 457 750 829 619 660 750 b 43 361 217 750 43 586 b 457 -28 43 136 221 -28 b 849 285 660 -28 828 104 l 557 319 b 461 236 547 271 507 236 b 363 361 403 236 363 289 b 461 486 363 433 404 486 b 557 403 507 486 547 451 z m 443 819 b 603 972 538 819 603 883 b 443 1125 603 1061 538 1125 b 283 972 351 1125 283 1061 b 443 819 283 883 351 819 z "},"Č":{"ha":1169,"x_min":0,"x_max":0,"o":"m 793 421 b 610 271 776 333 699 271 b 404 500 488 271 404 363 b 611 729 404 638 486 729 b 792 579 700 729 776 667 l 1124 614 b 599 1035 1107 858 886 1035 b 43 500 276 1035 43 810 b 599 -35 43 190 276 -35 b 1128 386 893 -35 1115 142 z m 599 1153 l 515 1347 l 311 1347 l 418 1097 l 779 1097 l 886 1347 l 682 1347 z "},"č":{"ha":885,"x_min":0,"x_max":0,"o":"m 849 440 b 457 750 829 619 660 750 b 43 361 217 750 43 586 b 457 -28 43 136 221 -28 b 849 285 660 -28 828 104 l 557 319 b 461 236 547 271 507 236 b 363 361 403 236 363 289 b 461 486 363 433 404 486 b 557 403 507 486 547 451 z m 528 1056 l 444 861 l 361 1056 l 157 1056 l 264 806 l 625 806 l 732 1056 z "},"Ď":{"ha":1140,"x_min":0,"x_max":0,"o":"m 529 736 b 738 500 654 736 738 642 b 529 264 738 358 654 264 l 432 264 l 432 736 z m 1099 500 b 529 1000 1099 800 871 1000 l 85 1000 l 85 0 l 529 0 b 1099 500 871 0 1099 200 z m 522 1153 l 439 1347 l 235 1347 l 342 1097 l 703 1097 l 810 1347 l 606 1347 z "},"ď":{"ha":1178,"x_min":0,"x_max":0,"o":"m 363 361 b 460 472 363 425 403 472 b 557 361 517 472 557 425 b 460 250 557 297 517 250 b 363 361 403 250 363 297 z m 543 1042 l 543 560 b 319 750 503 678 424 750 b 43 361 153 750 43 594 b 319 -28 43 128 153 -28 b 543 160 426 -28 504 43 l 543 0 l 863 0 l 863 1042 z m 1011 778 b 914 611 1011 726 969 657 l 1043 583 b 1178 872 1121 643 1178 765 b 1029 1042 1178 974 1118 1042 b 900 908 951 1042 900 989 b 1011 778 900 833 944 778 z "},"Đ":{"ha":1168,"x_min":0,"x_max":0,"o":"m 1126 500 b 557 1000 1126 800 899 1000 l 113 1000 l 113 611 l 1 611 l 1 431 l 113 431 l 113 0 l 557 0 b 1126 500 899 0 1126 200 z m 557 736 b 765 500 682 736 765 642 b 557 264 765 358 682 264 l 460 264 l 460 431 l 557 431 l 557 611 l 460 611 l 460 736 z "},"đ":{"ha":946,"x_min":0,"x_max":0,"o":"m 363 361 b 460 472 363 425 403 472 b 557 361 517 472 557 425 b 460 250 557 297 517 250 b 363 361 403 250 363 297 z m 543 560 b 319 750 503 678 424 750 b 43 361 153 750 43 594 b 319 -28 43 128 153 -28 b 543 160 426 -28 504 43 l 543 0 l 863 0 l 863 792 l 946 792 l 946 944 l 863 944 l 863 1042 l 543 1042 l 543 944 l 376 944 l 376 792 l 543 792 z "},"Ē":{"ha":863,"x_min":0,"x_max":0,"o":"m 432 278 l 432 389 l 751 389 l 751 625 l 432 625 l 432 722 l 807 722 l 807 1000 l 85 1000 l 85 0 l 821 0 l 821 278 z m 703 1306 l 189 1306 l 189 1125 l 703 1125 z "},"ē":{"ha":906,"x_min":0,"x_max":0,"o":"m 368 431 b 456 528 379 490 407 528 b 543 431 507 528 543 479 z m 557 250 b 474 194 546 218 519 194 b 372 278 421 194 389 225 l 858 278 b 863 357 861 290 863 335 b 460 750 863 593 707 750 b 43 361 215 750 43 594 b 453 -28 43 128 210 -28 b 835 215 649 -28 807 75 z m 203 1014 l 203 833 l 717 833 l 717 1014 z "},"Ĕ":{"ha":863,"x_min":0,"x_max":0,"o":"m 432 278 l 432 389 l 751 389 l 751 625 l 432 625 l 432 722 l 807 722 l 807 1000 l 85 1000 l 85 0 l 821 0 l 821 278 z m 446 1097 b 682 1319 588 1097 682 1186 l 501 1319 b 446 1250 501 1278 479 1250 b 390 1319 413 1250 390 1278 l 210 1319 b 446 1097 210 1186 304 1097 z "},"ĕ":{"ha":906,"x_min":0,"x_max":0,"o":"m 368 431 b 456 528 379 490 407 528 b 543 431 507 528 543 479 z m 557 250 b 474 194 546 218 519 194 b 372 278 421 194 389 225 l 858 278 b 863 357 861 290 863 335 b 460 750 863 593 707 750 b 43 361 215 750 43 594 b 453 -28 43 128 210 -28 b 835 215 649 -28 807 75 z m 460 806 b 696 1056 631 806 696 900 l 515 1056 b 460 958 515 997 493 958 b 404 1056 426 958 404 997 l 224 1056 b 460 806 224 900 289 806 z "},"Ė":{"ha":863,"x_min":0,"x_max":0,"o":"m 432 278 l 432 389 l 751 389 l 751 625 l 432 625 l 432 722 l 807 722 l 807 1000 l 85 1000 l 85 0 l 821 0 l 821 278 z m 446 1097 b 606 1250 539 1097 606 1161 b 446 1403 606 1339 539 1403 b 286 1250 353 1403 286 1339 b 446 1097 286 1161 353 1097 z "},"ė":{"ha":906,"x_min":0,"x_max":0,"o":"m 368 431 b 456 528 379 490 407 528 b 543 431 507 528 543 479 z m 557 250 b 474 194 546 218 519 194 b 372 278 421 194 389 225 l 858 278 b 863 357 861 290 863 335 b 460 750 863 593 707 750 b 43 361 215 750 43 594 b 453 -28 43 128 210 -28 b 835 215 649 -28 807 75 z m 458 819 b 618 972 553 819 618 883 b 458 1125 618 1061 553 1125 b 299 972 367 1125 299 1061 b 458 819 299 883 367 819 z "},"Ę":{"ha":863,"x_min":0,"x_max":0,"o":"m 615 0 b 474 -175 528 -33 474 -97 b 821 -387 474 -299 613 -387 l 821 -256 b 646 -133 715 -256 646 -203 b 779 0 646 -72 700 -31 l 821 0 l 821 278 l 432 278 l 432 389 l 751 389 l 751 625 l 432 625 l 432 722 l 807 722 l 807 1000 l 85 1000 l 85 0 z "},"ę":{"ha":906,"x_min":0,"x_max":0,"o":"m 368 431 b 456 528 379 490 407 528 b 543 431 507 528 543 479 z m 419 -26 b 329 -176 363 -62 329 -115 b 676 -389 329 -300 468 -389 l 676 -257 b 501 -135 571 -257 501 -204 b 639 0 501 -72 557 -31 l 626 1 b 835 215 738 42 815 119 l 557 250 b 474 194 546 218 519 194 b 372 278 421 194 389 225 l 858 278 b 863 357 861 290 863 335 b 460 750 863 593 707 750 b 43 361 215 750 43 594 b 419 -26 43 139 194 -12 z "},"Ě":{"ha":863,"x_min":0,"x_max":0,"o":"m 432 278 l 432 389 l 751 389 l 751 625 l 432 625 l 432 722 l 807 722 l 807 1000 l 85 1000 l 85 0 l 821 0 l 821 278 z m 529 1347 l 446 1153 l 363 1347 l 158 1347 l 265 1097 l 626 1097 l 733 1347 z "},"ě":{"ha":906,"x_min":0,"x_max":0,"o":"m 368 431 b 456 528 379 490 407 528 b 543 431 507 528 543 479 z m 557 250 b 474 194 546 218 519 194 b 372 278 421 194 389 225 l 858 278 b 863 357 861 290 863 335 b 460 750 863 593 707 750 b 43 361 215 750 43 594 b 453 -28 43 128 210 -28 b 835 215 649 -28 807 75 z m 460 861 l 376 1056 l 172 1056 l 279 806 l 640 806 l 747 1056 l 543 1056 z "},"Ĝ":{"ha":1196,"x_min":0,"x_max":0,"o":"m 807 389 b 626 271 797 321 719 271 b 404 500 496 271 404 367 b 610 729 404 633 490 729 b 776 625 690 729 758 686 l 1108 681 b 613 1035 1067 888 869 1035 b 43 500 282 1035 43 810 b 613 -35 43 190 282 -35 b 1150 583 964 -35 1190 225 l 599 583 l 599 389 z m 696 1097 l 890 1097 l 793 1319 l 432 1319 l 335 1097 l 529 1097 l 613 1278 z "},"ĝ":{"ha":933,"x_min":0,"x_max":0,"o":"m 557 361 b 460 250 557 297 517 250 b 363 361 403 250 363 297 b 460 472 363 425 403 472 b 557 361 517 472 557 425 z m 460 -347 b 863 0 701 -347 863 -208 l 863 722 l 543 722 l 543 561 b 318 750 504 679 425 750 b 43 361 158 750 43 594 b 318 0 43 144 158 0 b 543 175 425 0 504 67 l 543 14 b 444 -111 543 -61 503 -111 b 344 -28 396 -111 353 -76 l 69 -56 b 460 -347 82 -225 246 -347 z m 453 1000 l 536 806 l 740 806 l 633 1056 l 272 1056 l 165 806 l 369 806 z "},"Ğ":{"ha":1196,"x_min":0,"x_max":0,"o":"m 807 389 b 626 271 797 321 719 271 b 404 500 496 271 404 367 b 610 729 404 633 490 729 b 776 625 690 729 758 686 l 1108 681 b 613 1035 1067 888 869 1035 b 43 500 282 1035 43 810 b 613 -35 43 190 282 -35 b 1150 583 964 -35 1190 225 l 599 583 l 599 389 z m 613 1097 b 849 1319 754 1097 849 1186 l 668 1319 b 613 1250 668 1278 646 1250 b 557 1319 579 1250 557 1278 l 376 1319 b 613 1097 376 1186 471 1097 z "},"ğ":{"ha":933,"x_min":0,"x_max":0,"o":"m 557 361 b 460 250 557 297 517 250 b 363 361 403 250 363 297 b 460 472 363 425 403 472 b 557 361 517 472 557 425 z m 460 -347 b 863 0 701 -347 863 -208 l 863 722 l 543 722 l 543 561 b 318 750 504 679 425 750 b 43 361 158 750 43 594 b 318 0 43 144 158 0 b 543 175 425 0 504 67 l 543 14 b 444 -111 543 -61 503 -111 b 344 -28 396 -111 353 -76 l 69 -56 b 460 -347 82 -225 246 -347 z m 453 806 b 689 1056 624 806 689 900 l 508 1056 b 453 958 508 997 486 958 b 397 1056 419 958 397 997 l 217 1056 b 453 806 217 900 282 806 z "},"Ġ":{"ha":1196,"x_min":0,"x_max":0,"o":"m 807 389 b 626 271 797 321 719 271 b 404 500 496 271 404 367 b 610 729 404 633 490 729 b 776 625 690 729 758 686 l 1108 681 b 613 1035 1067 888 869 1035 b 43 500 282 1035 43 810 b 613 -35 43 190 282 -35 b 1150 583 964 -35 1190 225 l 599 583 l 599 389 z m 613 1097 b 772 1250 706 1097 772 1161 b 613 1403 772 1339 706 1403 b 453 1250 519 1403 453 1339 b 613 1097 453 1161 519 1097 z "},"ġ":{"ha":933,"x_min":0,"x_max":0,"o":"m 557 361 b 460 250 557 297 517 250 b 363 361 403 250 363 297 b 460 472 363 425 403 472 b 557 361 517 472 557 425 z m 460 -347 b 863 0 701 -347 863 -208 l 863 722 l 543 722 l 543 561 b 318 750 504 679 425 750 b 43 361 158 750 43 594 b 318 0 43 144 158 0 b 543 175 425 0 504 67 l 543 14 b 444 -111 543 -61 503 -111 b 344 -28 396 -111 353 -76 l 69 -56 b 460 -347 82 -225 246 -347 z m 451 819 b 611 972 546 819 611 883 b 451 1125 611 1061 546 1125 b 292 972 360 1125 292 1061 b 451 819 292 883 360 819 z "},"Ģ":{"ha":1196,"x_min":0,"x_max":0,"o":"m 807 389 b 626 271 797 321 719 271 b 404 500 496 271 404 367 b 610 729 404 633 490 729 b 776 625 690 729 758 686 l 1108 681 b 613 1035 1067 888 869 1035 b 43 500 282 1035 43 810 b 613 -35 43 190 282 -35 b 1150 583 964 -35 1190 225 l 599 583 l 599 389 z m 594 -361 b 497 -528 594 -412 553 -482 l 626 -556 b 761 -267 704 -496 761 -374 b 613 -97 761 -165 701 -97 b 483 -231 535 -97 483 -150 b 594 -361 483 -306 528 -361 z "},"ģ":{"ha":933,"x_min":0,"x_max":0,"o":"m 557 361 b 460 250 557 297 517 250 b 363 361 403 250 363 297 b 460 472 363 425 403 472 b 557 361 517 472 557 425 z m 460 -347 b 863 0 701 -347 863 -208 l 863 722 l 543 722 l 543 561 b 318 750 504 679 425 750 b 43 361 158 750 43 594 b 318 0 43 144 158 0 b 543 175 425 0 504 67 l 543 14 b 444 -111 543 -61 503 -111 b 344 -28 396 -111 353 -76 l 69 -56 b 460 -347 82 -225 246 -347 z m 463 1056 b 560 1222 463 1107 503 1176 l 429 1250 b 296 961 351 1190 296 1068 b 444 792 296 860 356 792 b 574 925 522 792 574 844 b 463 1056 574 1000 529 1056 z "},"Ĩ":{"ha":517,"x_min":0,"x_max":0,"o":"m 446 1000 l 85 1000 l 85 0 l 446 0 z m 150 1194 b 354 1125 196 1194 251 1125 b 571 1285 450 1125 543 1199 l 425 1357 b 357 1306 410 1326 382 1306 b 153 1375 311 1306 251 1375 b -54 1215 61 1375 -26 1303 l 90 1143 b 150 1194 106 1174 125 1194 z "},"ĩ":{"ha":461,"x_min":0,"x_max":0,"o":"m 383 722 l 64 722 l 64 0 l 383 0 z m 122 889 b 326 819 168 889 224 819 b 543 979 422 819 515 893 l 397 1051 b 329 1000 382 1021 354 1000 b 125 1069 283 1000 224 1069 b -82 910 33 1069 -54 997 l 63 838 b 122 889 78 868 97 889 z "},"Ī":{"ha":531,"x_min":0,"x_max":0,"o":"m 446 1000 l 85 1000 l 85 0 l 446 0 z m 522 1306 l 8 1306 l 8 1125 l 522 1125 z "},"ī":{"ha":489,"x_min":0,"x_max":0,"o":"m 404 722 l 85 722 l 85 0 l 404 0 z m 501 1014 l -12 1014 l -12 833 l 501 833 z "},"Į":{"ha":567,"x_min":0,"x_max":0,"o":"m 278 0 b 135 -175 190 -33 135 -97 b 482 -387 135 -299 274 -387 l 482 -256 b 307 -133 376 -256 307 -203 b 442 0 307 -72 361 -31 l 446 0 l 446 1000 l 85 1000 l 85 0 z "},"į":{"ha":511,"x_min":0,"x_max":0,"o":"m 235 0 b 93 -175 147 -33 93 -97 b 440 -387 93 -299 232 -387 l 440 -256 b 265 -133 335 -256 265 -203 b 399 0 265 -72 319 -31 l 404 0 l 404 722 l 85 722 l 85 0 z m 71 944 b 244 778 71 847 144 778 b 418 944 346 778 418 847 b 244 1111 418 1042 346 1111 b 71 944 144 1111 71 1042 z "},"İ":{"ha":531,"x_min":0,"x_max":0,"o":"m 446 1000 l 85 1000 l 85 0 l 446 0 z m 265 1097 b 425 1250 358 1097 425 1161 b 265 1403 425 1339 358 1403 b 106 1250 172 1403 106 1339 b 265 1097 106 1161 172 1097 z "},"ı":{"ha":461,"x_min":0,"x_max":0,"o":"m 390 722 l 71 722 l 71 0 l 390 0 z "},"Ĳ":{"ha":1225,"x_min":0,"x_max":0,"o":"m 446 1000 l 85 1000 l 85 0 l 446 0 z m 781 389 b 656 250 781 306 731 250 b 544 264 618 250 574 256 l 544 0 b 764 -28 597 -17 685 -28 b 1142 333 982 -28 1142 117 l 1142 1000 l 781 1000 z "},"ĳ":{"ha":961,"x_min":0,"x_max":0,"o":"m 404 722 l 85 722 l 85 0 l 404 0 z m 558 722 l 558 -153 b 504 -211 557 -187 536 -211 b 449 -153 472 -211 449 -187 l 449 -51 l 393 -51 l 393 -154 b 611 -333 393 -258 485 -333 b 878 -114 776 -333 878 -244 l 878 722 z m 71 944 b 244 778 71 847 144 778 b 418 944 346 778 418 847 b 244 1111 418 1042 346 1111 b 71 944 144 1111 71 1042 z m 892 944 b 718 1111 892 1042 819 1111 b 544 944 618 1111 544 1042 b 718 778 544 847 618 778 b 892 944 819 778 892 847 z "},"Ķ":{"ha":1104,"x_min":0,"x_max":0,"o":"m 446 569 l 446 1000 l 85 1000 l 85 0 l 446 0 l 446 478 l 682 0 l 1103 0 l 807 528 l 1103 1000 l 682 1000 z m 539 -361 b 442 -528 539 -412 497 -482 l 571 -556 b 706 -267 649 -496 706 -374 b 557 -97 706 -165 646 -97 b 428 -231 479 -97 428 -150 b 539 -361 428 -306 472 -361 z "},"ķ":{"ha":940,"x_min":0,"x_max":0,"o":"m 71 1042 l 71 0 l 390 0 l 390 326 l 571 0 l 940 0 l 710 375 l 938 722 l 571 722 l 390 426 l 390 1042 z m 449 -361 b 351 -528 449 -412 407 -482 l 481 -556 b 615 -267 558 -496 615 -374 b 467 -97 615 -165 556 -97 b 338 -231 389 -97 338 -150 b 449 -361 338 -306 382 -361 z "},"Ĺ":{"ha":807,"x_min":0,"x_max":0,"o":"m 765 0 l 765 306 l 446 306 l 446 1000 l 85 1000 l 85 0 z m 568 1319 l 293 1319 l 132 1097 l 349 1097 z "},"ĺ":{"ha":596,"x_min":0,"x_max":0,"o":"m 390 1042 l 71 1042 l 71 0 l 390 0 z m 525 1333 l 251 1333 l 99 1083 l 307 1083 z "},"Ļ":{"ha":807,"x_min":0,"x_max":0,"o":"m 765 306 l 446 306 l 446 1000 l 85 1000 l 85 0 l 765 0 z m 400 -361 b 303 -528 400 -412 358 -482 l 432 -556 b 567 -267 510 -496 567 -374 b 418 -97 567 -165 507 -97 b 289 -231 340 -97 289 -150 b 400 -361 289 -306 333 -361 z "},"ļ":{"ha":461,"x_min":0,"x_max":0,"o":"m 390 1042 l 71 1042 l 71 0 l 390 0 z m 204 -361 b 107 -528 204 -412 163 -482 l 236 -556 b 371 -267 314 -496 371 -374 b 222 -97 371 -165 311 -97 b 93 -231 144 -97 93 -150 b 204 -361 93 -306 138 -361 z "},"Ľ":{"ha":817,"x_min":0,"x_max":0,"o":"m 765 0 l 765 306 l 446 306 l 446 1000 l 85 1000 l 85 0 z m 608 778 b 511 611 608 726 567 657 l 640 583 b 775 872 718 643 775 765 b 626 1042 775 974 715 1042 b 497 908 549 1042 497 989 b 608 778 497 833 542 778 z "},"ľ":{"ha":724,"x_min":0,"x_max":0,"o":"m 390 1042 l 71 1042 l 71 0 l 390 0 z m 557 778 b 460 611 557 726 515 657 l 589 583 b 724 872 667 643 724 765 b 575 1042 724 974 664 1042 b 446 908 497 1042 446 989 b 557 778 446 833 490 778 z "},"Ł":{"ha":724,"x_min":0,"x_max":0,"o":"m 1 431 l 1 171 l 140 258 l 140 0 l 821 0 l 821 306 l 501 306 l 501 486 l 793 671 l 793 931 l 501 746 l 501 1000 l 140 1000 l 140 518 z "},"ł":{"ha":708,"x_min":0,"x_max":0,"o":"m 194 565 l 28 458 l 28 199 l 194 306 l 194 0 l 514 0 l 514 508 l 681 615 l 681 875 l 514 768 l 514 1042 l 194 1042 z "},"Ń":{"ha":1156,"x_min":0,"x_max":0,"o":"m 640 1000 l 85 1000 l 85 0 l 404 0 l 404 840 l 515 0 l 1071 0 l 1071 1000 l 751 1000 l 751 157 z m 892 1319 l 617 1319 l 454 1097 l 672 1097 z "},"ń":{"ha":892,"x_min":0,"x_max":0,"o":"m 453 472 b 515 389 490 472 515 439 l 515 0 l 835 0 l 835 472 b 614 750 835 633 740 750 b 390 522 501 750 421 660 l 390 722 l 71 722 l 71 0 l 390 0 l 390 389 b 453 472 390 439 415 472 z m 522 1056 l 369 806 l 578 806 l 796 1056 z "},"Ņ":{"ha":1156,"x_min":0,"x_max":0,"o":"m 640 1000 l 85 1000 l 85 0 l 404 0 l 404 840 l 515 0 l 1071 0 l 1071 1000 l 751 1000 l 751 157 z m 560 -361 b 463 -528 560 -412 519 -482 l 593 -556 b 726 -267 671 -496 726 -374 b 578 -97 726 -165 667 -97 b 449 -231 500 -97 449 -150 b 560 -361 449 -306 493 -361 z "},"ņ":{"ha":892,"x_min":0,"x_max":0,"o":"m 453 472 b 515 389 490 472 515 439 l 515 0 l 835 0 l 835 472 b 614 750 835 633 740 750 b 390 522 501 750 421 660 l 390 722 l 71 722 l 71 0 l 390 0 l 390 389 b 453 472 390 439 415 472 z m 432 -361 b 335 -528 432 -412 390 -482 l 464 -556 b 599 -267 542 -496 599 -374 b 450 -97 599 -165 539 -97 b 321 -231 372 -97 321 -150 b 432 -361 321 -306 365 -361 z "},"Ň":{"ha":1156,"x_min":0,"x_max":0,"o":"m 640 1000 l 85 1000 l 85 0 l 404 0 l 404 840 l 515 0 l 1071 0 l 1071 1000 l 751 1000 l 751 157 z m 664 1347 l 581 1153 l 497 1347 l 293 1347 l 400 1097 l 761 1097 l 868 1347 z "},"ň":{"ha":892,"x_min":0,"x_max":0,"o":"m 453 472 b 515 389 490 472 515 439 l 515 0 l 835 0 l 835 472 b 614 750 835 633 740 750 b 390 522 501 750 421 660 l 390 722 l 71 722 l 71 0 l 390 0 l 390 389 b 453 472 390 439 415 472 z m 578 1056 l 494 861 l 411 1056 l 207 1056 l 314 806 l 675 806 l 782 1056 z "},"Ō":{"ha":1224,"x_min":0,"x_max":0,"o":"m 43 500 b 613 -35 43 179 271 -35 b 1182 500 954 -35 1182 179 b 613 1035 1182 821 954 1035 b 43 500 271 1035 43 821 z m 404 500 b 613 729 404 638 488 729 b 821 500 738 729 821 638 b 613 271 821 363 738 271 b 404 500 488 271 404 363 z m 869 1306 l 356 1306 l 356 1125 l 869 1125 z "},"ō":{"ha":919,"x_min":0,"x_max":0,"o":"m 557 361 b 460 250 557 294 518 250 b 363 361 401 250 363 294 b 460 472 363 428 401 472 b 557 361 518 472 557 428 z m 876 361 b 460 750 876 594 710 750 b 43 361 210 750 43 594 b 460 -28 43 128 210 -28 b 876 361 710 -28 876 128 z m 203 1014 l 203 833 l 717 833 l 717 1014 z "},"Ŏ":{"ha":1224,"x_min":0,"x_max":0,"o":"m 404 500 b 613 729 404 638 488 729 b 821 500 738 729 821 638 b 613 271 821 363 738 271 b 404 500 488 271 404 363 z m 43 500 b 613 -35 43 179 271 -35 b 1182 500 954 -35 1182 179 b 613 1035 1182 821 954 1035 b 43 500 271 1035 43 821 z m 613 1097 b 849 1319 754 1097 849 1186 l 668 1319 b 613 1250 668 1278 646 1250 b 557 1319 579 1250 557 1278 l 376 1319 b 613 1097 376 1186 471 1097 z "},"ŏ":{"ha":919,"x_min":0,"x_max":0,"o":"m 557 361 b 460 250 557 294 518 250 b 363 361 401 250 363 294 b 460 472 363 428 401 472 b 557 361 518 472 557 428 z m 876 361 b 460 750 876 594 710 750 b 43 361 210 750 43 594 b 460 -28 43 128 210 -28 b 876 361 710 -28 876 128 z m 460 806 b 696 1056 631 806 696 900 l 515 1056 b 460 958 515 997 493 958 b 404 1056 426 958 404 997 l 224 1056 b 460 806 224 900 289 806 z "},"Ő":{"ha":1224,"x_min":0,"x_max":0,"o":"m 43 500 b 613 -35 43 179 271 -35 b 1182 500 954 -35 1182 179 b 613 1035 1182 821 954 1035 b 43 500 271 1035 43 821 z m 404 500 b 613 729 404 638 488 729 b 821 500 738 729 821 638 b 613 271 821 363 738 271 b 404 500 488 271 404 363 z m 490 1319 l 363 1097 l 574 1097 l 754 1319 z m 810 1319 l 654 1097 l 865 1097 l 1074 1319 z "},"ő":{"ha":917,"x_min":0,"x_max":0,"o":"m 875 361 b 458 750 875 594 708 750 b 42 361 208 750 42 594 b 458 -28 42 128 208 -28 b 875 361 708 -28 875 128 z m 556 361 b 458 250 556 294 517 250 b 361 361 400 250 361 294 b 458 472 361 428 400 472 b 556 361 517 472 556 428 z m 324 1056 l 208 806 l 407 806 l 597 1056 z m 643 1056 l 490 806 l 699 806 l 931 1056 z "},"Œ":{"ha":1446,"x_min":0,"x_max":0,"o":"m 724 321 b 599 271 690 289 644 271 b 404 500 486 271 404 367 b 599 729 404 633 486 729 b 724 679 644 729 690 711 z m 1071 278 l 1071 389 l 1335 389 l 1335 625 l 1071 625 l 1071 722 l 1390 722 l 1390 1000 l 724 1000 b 557 1035 671 1022 614 1035 b 43 500 224 1035 43 821 b 557 -35 43 179 224 -35 b 726 0 613 -35 671 -24 l 1404 0 l 1404 278 z "},"œ":{"ha":1421,"x_min":0,"x_max":0,"o":"m 557 361 b 460 250 557 294 518 250 b 363 361 401 250 363 294 b 460 472 363 428 401 472 b 557 361 518 472 557 428 z m 883 431 b 971 528 894 490 922 528 b 1058 431 1022 528 1058 479 z m 1074 250 b 988 194 1060 218 1031 194 b 888 278 936 194 904 225 l 1374 278 b 1378 357 1376 290 1378 335 b 1036 750 1378 593 1238 750 b 711 479 868 750 749 642 b 390 750 672 642 556 750 b 43 361 192 750 43 594 b 390 -28 43 128 192 -28 b 710 242 556 -28 672 81 b 1022 -28 747 81 863 -28 b 1335 197 1171 -28 1301 67 z "},"Ŕ":{"ha":1118,"x_min":0,"x_max":0,"o":"m 682 639 b 543 528 682 568 618 528 l 446 528 l 446 750 l 543 750 b 682 639 618 750 682 710 z m 849 350 b 1043 639 969 403 1043 504 b 617 1000 1043 857 874 1000 l 85 1000 l 85 0 l 446 0 l 446 306 l 529 306 l 682 0 l 1076 0 z m 579 1319 l 417 1097 l 635 1097 l 854 1319 z "},"ŕ":{"ha":672,"x_min":0,"x_max":0,"o":"m 569 750 b 390 513 486 750 418 657 l 390 722 l 71 722 l 71 0 l 390 0 l 390 361 b 507 483 390 435 438 483 b 640 451 543 483 596 471 l 640 733 b 569 750 617 744 590 750 z m 383 1056 l 231 806 l 439 806 l 657 1056 z "},"Ŗ":{"ha":1118,"x_min":0,"x_max":0,"o":"m 682 639 b 543 528 682 568 618 528 l 446 528 l 446 750 l 543 750 b 682 639 618 750 682 710 z m 849 350 b 1043 639 969 403 1043 504 b 617 1000 1043 857 874 1000 l 85 1000 l 85 0 l 446 0 l 446 306 l 529 306 l 682 0 l 1076 0 z m 538 -361 b 440 -528 538 -412 497 -483 l 571 -557 b 704 -267 649 -496 704 -375 b 556 -97 704 -165 644 -97 b 426 -231 478 -97 426 -150 b 538 -361 426 -306 471 -361 z "},"ŗ":{"ha":654,"x_min":0,"x_max":0,"o":"m 569 750 b 390 513 486 750 418 657 l 390 722 l 71 722 l 71 0 l 390 0 l 390 361 b 507 483 390 435 438 483 b 640 451 543 483 596 471 l 640 733 b 569 750 617 744 590 750 z m 213 -361 b 115 -528 213 -412 171 -482 l 244 -556 b 379 -267 322 -496 379 -374 b 231 -97 379 -165 319 -97 b 101 -231 153 -97 101 -150 b 213 -361 101 -306 146 -361 z "},"Ř":{"ha":1118,"x_min":0,"x_max":0,"o":"m 682 639 b 543 528 682 568 618 528 l 446 528 l 446 750 l 543 750 b 682 639 618 750 682 710 z m 849 350 b 1043 639 969 403 1043 504 b 617 1000 1043 857 874 1000 l 85 1000 l 85 0 l 446 0 l 446 306 l 529 306 l 682 0 l 1076 0 z m 543 1153 l 460 1347 l 256 1347 l 363 1097 l 724 1097 l 831 1347 l 626 1347 z "},"ř":{"ha":654,"x_min":0,"x_max":0,"o":"m 569 750 b 390 513 486 750 418 657 l 390 722 l 71 722 l 71 0 l 390 0 l 390 361 b 507 483 390 435 438 483 b 640 451 543 483 596 471 l 640 733 b 569 750 617 744 590 750 z m 439 1056 l 356 861 l 272 1056 l 68 1056 l 175 806 l 536 806 l 643 1056 z "},"Ś":{"ha":1018,"x_min":0,"x_max":0,"o":"m 497 -35 b 969 333 771 -35 969 113 b 565 653 969 574 772 633 b 400 722 471 663 400 669 b 510 785 400 758 447 785 b 650 682 590 785 650 742 l 944 682 b 497 1035 944 886 757 1035 b 53 681 239 1035 53 894 b 460 358 53 442 246 382 b 622 285 551 349 622 340 b 510 215 622 244 575 215 b 358 332 425 215 358 264 l 50 332 b 497 -35 50 119 238 -35 z m 808 1319 l 533 1319 l 372 1097 l 589 1097 z "},"ś":{"ha":808,"x_min":0,"x_max":0,"o":"m 392 -35 b 781 251 625 -35 781 83 b 419 471 781 428 582 457 b 322 519 401 472 322 479 b 393 563 322 544 351 563 b 481 501 442 563 481 538 l 746 501 b 392 757 746 650 596 757 b 44 486 190 757 44 643 b 336 263 44 303 188 269 b 475 210 449 257 475 240 b 399 160 475 181 442 160 b 294 233 338 160 294 190 l 43 233 b 392 -35 43 78 189 -35 z m 433 1056 l 281 806 l 489 806 l 707 1056 z "},"Ŝ":{"ha":1018,"x_min":0,"x_max":0,"o":"m 497 -35 b 969 333 771 -35 969 113 b 565 653 969 574 772 633 b 400 722 471 663 400 669 b 510 785 400 758 447 785 b 650 682 590 785 650 742 l 944 682 b 497 1035 944 886 757 1035 b 53 681 239 1035 53 894 b 460 358 53 442 246 382 b 622 285 551 349 622 340 b 510 215 622 244 575 215 b 358 332 425 215 358 264 l 50 332 b 497 -35 50 119 238 -35 z m 497 1278 l 581 1097 l 775 1097 l 678 1319 l 317 1319 l 219 1097 l 414 1097 z "},"ŝ":{"ha":808,"x_min":0,"x_max":0,"o":"m 392 -35 b 781 251 625 -35 781 83 b 419 471 781 428 582 457 b 322 519 401 472 322 479 b 393 563 322 544 351 563 b 481 501 442 563 481 538 l 746 501 b 392 757 746 650 596 757 b 44 486 190 757 44 643 b 336 263 44 303 188 269 b 475 210 449 257 475 240 b 399 160 475 181 442 160 b 294 233 338 160 294 190 l 43 233 b 392 -35 43 78 189 -35 z m 322 806 l 406 1000 l 489 806 l 693 806 l 586 1056 l 225 1056 l 118 806 z "},"Ş":{"ha":1018,"x_min":0,"x_max":0,"o":"m 442 -181 b 511 -222 483 -181 511 -197 b 467 -264 511 -247 494 -264 b 400 -222 439 -264 413 -247 l 331 -292 b 485 -375 356 -342 417 -375 b 675 -239 599 -375 675 -321 b 539 -111 675 -162 621 -111 l 553 -32 b 969 333 797 -14 969 128 b 565 653 969 574 772 633 b 400 722 471 663 400 669 b 510 785 400 758 447 785 b 650 682 590 785 650 742 l 944 682 b 497 1035 944 886 757 1035 b 53 681 239 1035 53 894 b 460 358 53 442 246 382 b 622 285 551 349 622 340 b 510 215 622 244 575 215 b 358 332 425 215 358 264 l 50 332 b 401 -28 50 146 193 6 l 372 -181 z "},"ş":{"ha":808,"x_min":0,"x_max":0,"o":"m 378 -181 b 447 -222 419 -181 447 -197 b 403 -264 447 -247 431 -264 b 336 -222 375 -264 349 -247 l 267 -292 b 421 -375 292 -342 353 -375 b 611 -239 535 -375 611 -321 b 475 -111 611 -162 557 -111 l 490 -28 b 781 251 667 1 781 108 b 419 471 781 428 582 457 b 322 519 401 472 322 479 b 393 563 322 544 351 563 b 481 501 442 563 481 538 l 746 501 b 392 757 746 650 596 757 b 44 486 190 757 44 643 b 336 263 44 303 188 269 b 475 210 449 257 475 240 b 399 160 475 181 442 160 b 294 233 338 160 294 190 l 43 233 b 336 -32 43 92 163 -14 l 308 -181 z "},"Š":{"ha":1018,"x_min":0,"x_max":0,"o":"m 497 -35 b 969 333 771 -35 969 113 b 565 653 969 574 772 633 b 400 722 471 663 400 669 b 510 785 400 758 447 785 b 650 682 590 785 650 742 l 944 682 b 497 1035 944 886 757 1035 b 53 681 239 1035 53 894 b 460 358 53 442 246 382 b 622 285 551 349 622 340 b 510 215 622 244 575 215 b 358 332 425 215 358 264 l 50 332 b 497 -35 50 119 238 -35 z m 581 1347 l 497 1153 l 414 1347 l 210 1347 l 317 1097 l 678 1097 l 785 1347 z "},"š":{"ha":808,"x_min":0,"x_max":0,"o":"m 392 -35 b 781 251 625 -35 781 83 b 419 471 781 428 582 457 b 322 519 401 472 322 479 b 393 563 322 544 351 563 b 481 501 442 563 481 538 l 746 501 b 392 757 746 650 596 757 b 44 486 190 757 44 643 b 336 263 44 303 188 269 b 475 210 449 257 475 240 b 399 160 475 181 442 160 b 294 233 338 160 294 190 l 43 233 b 392 -35 43 78 189 -35 z m 461 1056 l 378 861 l 294 1056 l 89 1056 l 197 806 l 558 806 l 665 1056 z "},"Ţ":{"ha":919,"x_min":0,"x_max":0,"o":"m 279 708 l 279 0 l 640 0 l 640 708 l 904 708 l 904 1000 l 15 1000 l 15 708 z m 439 -361 b 342 -528 439 -412 399 -482 l 472 -556 b 606 -267 549 -496 606 -375 b 457 -97 606 -165 546 -97 b 328 -231 379 -97 328 -150 b 439 -361 328 -306 372 -361 z "},"ţ":{"ha":614,"x_min":0,"x_max":0,"o":"m 514 142 b 472 94 514 114 496 94 b 432 142 449 94 432 114 l 432 486 l 571 486 l 571 722 l 432 722 l 432 917 l 154 917 l 126 722 l 29 722 l 29 486 l 113 486 l 113 181 b 364 -28 113 56 208 -28 b 569 140 483 -28 569 43 l 569 254 l 514 254 z m 336 -361 b 239 -528 336 -412 294 -482 l 368 -556 b 503 -267 446 -496 503 -374 b 354 -97 503 -165 443 -97 b 225 -231 276 -97 225 -150 b 336 -361 225 -306 269 -361 z "},"Ť":{"ha":919,"x_min":0,"x_max":0,"o":"m 279 708 l 279 0 l 640 0 l 640 708 l 904 708 l 904 1000 l 15 1000 l 15 708 z m 543 1347 l 460 1153 l 376 1347 l 172 1347 l 279 1097 l 640 1097 l 747 1347 z "},"ť":{"ha":721,"x_min":0,"x_max":0,"o":"m 514 142 b 472 94 514 114 496 94 b 432 142 449 94 432 114 l 432 486 l 571 486 l 571 722 l 432 722 l 432 917 l 154 917 l 126 722 l 29 722 l 29 486 l 113 486 l 113 181 b 364 -28 113 56 208 -28 b 569 140 483 -28 569 43 l 569 254 l 514 254 z m 554 972 b 457 806 554 921 513 851 l 586 778 b 721 1067 664 838 721 960 b 572 1236 721 1168 661 1236 b 443 1103 494 1236 443 1183 b 554 972 443 1028 488 972 z "},"Ũ":{"ha":1128,"x_min":0,"x_max":0,"o":"m 696 438 b 564 271 696 338 643 271 b 432 438 469 278 432 358 l 432 1000 l 71 1000 l 71 424 b 564 -35 71 149 268 -35 b 1057 424 860 -35 1057 149 l 1057 1000 l 696 1000 z m 449 1194 b 653 1125 494 1194 550 1125 b 869 1285 749 1125 842 1199 l 724 1357 b 656 1306 708 1326 681 1306 b 451 1375 610 1306 550 1375 b 244 1215 360 1375 272 1303 l 389 1143 b 449 1194 404 1174 424 1194 z "},"ũ":{"ha":892,"x_min":0,"x_max":0,"o":"m 439 250 b 376 333 401 250 376 283 l 376 722 l 57 722 l 57 250 b 278 -28 57 89 151 -28 b 501 200 389 -28 469 63 l 501 0 l 821 0 l 821 722 l 501 722 l 501 333 b 439 250 501 283 476 250 z m 338 889 b 542 819 383 889 439 819 b 758 979 638 819 731 893 l 613 1051 b 544 1000 597 1021 569 1000 b 340 1069 499 1000 439 1069 b 133 910 249 1069 161 997 l 278 838 b 338 889 293 868 313 889 z "},"Ū":{"ha":1128,"x_min":0,"x_max":0,"o":"m 696 438 b 564 271 696 338 643 271 b 432 438 469 278 432 358 l 432 1000 l 71 1000 l 71 424 b 564 -35 71 149 268 -35 b 1057 424 860 -35 1057 149 l 1057 1000 l 696 1000 z m 821 1306 l 307 1306 l 307 1125 l 821 1125 z "},"ū":{"ha":892,"x_min":0,"x_max":0,"o":"m 439 250 b 376 333 401 250 376 283 l 376 722 l 57 722 l 57 250 b 278 -28 57 89 151 -28 b 501 200 389 -28 469 63 l 501 0 l 821 0 l 821 722 l 501 722 l 501 333 b 439 250 501 283 476 250 z m 696 1014 l 182 1014 l 182 833 l 696 833 z "},"Ŭ":{"ha":1128,"x_min":0,"x_max":0,"o":"m 696 438 b 564 271 696 338 643 271 b 432 438 469 278 432 358 l 432 1000 l 71 1000 l 71 424 b 564 -35 71 149 268 -35 b 1057 424 860 -35 1057 149 l 1057 1000 l 696 1000 z m 564 1097 b 800 1319 706 1097 800 1186 l 619 1319 b 564 1250 619 1278 597 1250 b 508 1319 531 1250 508 1278 l 328 1319 b 564 1097 328 1186 422 1097 z "},"ŭ":{"ha":892,"x_min":0,"x_max":0,"o":"m 439 250 b 376 333 401 250 376 283 l 376 722 l 57 722 l 57 250 b 278 -28 57 89 151 -28 b 501 200 389 -28 469 63 l 501 0 l 821 0 l 821 722 l 501 722 l 501 333 b 439 250 501 283 476 250 z m 439 806 b 675 1056 610 806 675 900 l 494 1056 b 439 958 494 997 472 958 b 383 1056 406 958 383 997 l 203 1056 b 439 806 203 900 268 806 z "},"Ů":{"ha":1128,"x_min":0,"x_max":0,"o":"m 564 1361 b 633 1292 606 1361 633 1333 b 564 1222 633 1250 606 1222 b 494 1292 522 1222 494 1250 b 564 1361 494 1333 522 1361 z m 696 438 b 564 271 696 338 643 271 b 432 438 469 278 432 358 l 432 1000 l 71 1000 l 71 424 b 564 -35 71 149 268 -35 b 1057 424 860 -35 1057 149 l 1057 1000 l 696 1000 z m 564 1083 b 800 1292 706 1083 800 1167 b 564 1500 800 1417 706 1500 b 328 1292 422 1500 328 1417 b 564 1083 328 1167 422 1083 z "},"ů":{"ha":892,"x_min":0,"x_max":0,"o":"m 439 1069 b 508 1000 481 1069 508 1042 b 439 931 508 958 481 931 b 369 1000 397 931 369 958 b 439 1069 369 1042 397 1069 z m 439 250 b 376 333 401 250 376 283 l 376 722 l 57 722 l 57 250 b 278 -28 57 89 151 -28 b 501 200 389 -28 469 63 l 501 0 l 821 0 l 821 722 l 501 722 l 501 333 b 439 250 501 283 476 250 z m 439 792 b 675 1000 581 792 675 875 b 439 1208 675 1125 581 1208 b 203 1000 297 1208 203 1125 b 439 792 203 875 297 792 z "},"Ű":{"ha":1128,"x_min":0,"x_max":0,"o":"m 696 438 b 564 271 696 338 643 271 b 432 438 469 278 432 358 l 432 1000 l 71 1000 l 71 424 b 564 -35 71 149 268 -35 b 1057 424 860 -35 1057 149 l 1057 1000 l 696 1000 z m 435 1319 l 307 1097 l 518 1097 l 699 1319 z m 754 1319 l 599 1097 l 810 1097 l 1018 1319 z "},"ű":{"ha":883,"x_min":0,"x_max":0,"o":"m 439 250 b 376 333 401 250 376 283 l 376 722 l 57 722 l 57 250 b 278 -28 57 89 151 -28 b 501 200 389 -28 469 63 l 501 0 l 821 0 l 821 722 l 501 722 l 501 333 b 439 250 501 283 476 250 z m 290 1056 l 175 806 l 374 806 l 563 1056 z m 610 1056 l 457 806 l 665 806 l 896 1056 z "},"Ų":{"ha":1128,"x_min":0,"x_max":0,"o":"m 507 -32 b 426 -176 456 -68 426 -118 b 774 -389 426 -300 565 -389 l 774 -257 b 599 -135 668 -257 599 -204 b 681 -25 599 -87 629 -51 b 1057 424 910 18 1057 186 l 1057 1000 l 696 1000 l 696 438 b 564 271 696 338 643 271 b 432 438 469 278 432 358 l 432 1000 l 71 1000 l 71 424 b 507 -32 71 167 243 -11 z "},"ų":{"ha":919,"x_min":0,"x_max":0,"o":"m 644 0 b 503 -175 557 -33 503 -97 b 850 -387 503 -299 642 -387 l 850 -256 b 675 -133 744 -256 675 -203 b 808 0 675 -72 728 -31 l 821 0 l 821 722 l 501 722 l 501 333 b 439 250 501 283 476 250 b 376 333 401 250 376 283 l 376 722 l 57 722 l 57 250 b 278 -28 57 89 151 -28 b 501 200 389 -28 469 63 l 501 0 z "},"Ŵ":{"ha":1783,"x_min":0,"x_max":0,"o":"m 614 1000 l 531 94 l 378 1000 l 15 1000 l 211 0 l 808 0 l 892 888 l 975 0 l 1572 0 l 1768 1000 l 1406 1000 l 1254 94 l 1169 1000 z m 890 1278 l 974 1097 l 1168 1097 l 1071 1319 l 710 1319 l 613 1097 l 807 1097 z "},"ŵ":{"ha":1343,"x_min":0,"x_max":0,"o":"m 872 722 l 471 722 l 404 74 l 346 722 l 15 722 l 138 0 l 610 0 l 672 611 l 735 0 l 1207 0 l 1329 722 l 1013 722 l 953 64 z m 589 806 l 672 1000 l 756 806 l 960 806 l 853 1056 l 492 1056 l 385 806 z "},"Ŷ":{"ha":1032,"x_min":0,"x_max":0,"o":"m 653 1000 l 521 639 l 374 1000 l 0 1000 l 340 333 l 340 0 l 701 0 l 701 333 l 1032 1000 z m 517 1278 l 600 1097 l 794 1097 l 697 1319 l 336 1319 l 239 1097 l 433 1097 z "},"ŷ":{"ha":913,"x_min":0,"x_max":0,"o":"m 447 99 l 335 722 l 1 722 l 208 0 l 426 0 b 239 -235 382 -153 344 -235 b 125 -125 161 -235 125 -189 l 125 -58 l 69 -58 l 69 -154 b 315 -333 69 -258 149 -333 b 696 -42 529 -333 649 -210 l 911 722 l 585 722 z m 375 806 l 458 1000 l 542 806 l 746 806 l 639 1056 l 278 1056 l 171 806 z "},"Ÿ":{"ha":1032,"x_min":0,"x_max":0,"o":"m 653 1000 l 521 639 l 374 1000 l 0 1000 l 340 333 l 340 0 l 701 0 l 701 333 l 1032 1000 z m 322 1083 b 468 1229 407 1083 468 1144 b 322 1375 468 1314 407 1375 b 176 1229 238 1375 176 1314 b 322 1083 176 1144 238 1083 z m 711 1083 b 857 1229 796 1083 857 1144 b 711 1375 857 1314 796 1375 b 565 1229 626 1375 565 1314 b 711 1083 565 1144 626 1083 z "},"Ź":{"ha":947,"x_min":0,"x_max":0,"o":"m 696 722 l 57 486 l 57 0 l 890 0 l 890 278 l 256 278 l 876 514 l 876 1000 l 71 1000 l 71 722 z m 785 1319 l 510 1319 l 347 1097 l 565 1097 z "},"ź":{"ha":807,"x_min":0,"x_max":0,"o":"m 543 486 l 57 389 l 57 0 l 751 0 l 751 236 l 283 236 l 738 333 l 738 722 l 71 722 l 71 486 z m 433 1056 l 279 806 l 489 806 l 707 1056 z "},"Ż":{"ha":947,"x_min":0,"x_max":0,"o":"m 696 722 l 57 486 l 57 0 l 890 0 l 890 278 l 256 278 l 876 514 l 876 1000 l 71 1000 l 71 722 z m 474 1097 b 633 1250 567 1097 633 1161 b 474 1403 633 1339 567 1403 b 314 1250 381 1403 314 1339 b 474 1097 314 1161 381 1097 z "},"ż":{"ha":807,"x_min":0,"x_max":0,"o":"m 543 486 l 57 389 l 57 0 l 751 0 l 751 236 l 283 236 l 738 333 l 738 722 l 71 722 l 71 486 z m 404 819 b 564 972 497 819 564 883 b 404 1125 564 1061 497 1125 b 244 972 311 1125 244 1061 b 404 819 244 883 311 819 z "},"Ž":{"ha":947,"x_min":0,"x_max":0,"o":"m 696 722 l 57 486 l 57 0 l 890 0 l 890 278 l 256 278 l 876 514 l 876 1000 l 71 1000 l 71 722 z m 557 1347 l 474 1153 l 390 1347 l 186 1347 l 293 1097 l 654 1097 l 761 1347 z "},"ž":{"ha":807,"x_min":0,"x_max":0,"o":"m 543 486 l 57 389 l 57 0 l 751 0 l 751 236 l 283 236 l 738 333 l 738 722 l 71 722 l 71 486 z m 488 1056 l 404 861 l 321 1056 l 117 1056 l 224 806 l 585 806 l 692 1056 z "},"Ǻ":{"ha":1117,"x_min":0,"x_max":0,"o":"m 663 375 l 453 375 l 557 890 z m 557 1264 b 606 1215 586 1264 606 1244 b 557 1167 606 1186 586 1167 b 508 1215 528 1167 508 1186 b 557 1264 508 1244 528 1264 z m 403 125 l 714 125 l 739 1 l 1115 1 l 876 1000 l 238 1000 l 1 0 l 378 0 z m 557 1028 b 772 1215 686 1028 772 1103 b 557 1403 772 1328 686 1403 b 342 1215 428 1403 342 1328 b 557 1028 342 1103 428 1028 z m 593 1597 l 432 1431 l 649 1431 l 840 1597 z "},"ǻ":{"ha":1007,"x_min":0,"x_max":0,"o":"m 460 250 b 363 361 403 250 363 297 b 460 472 363 425 403 472 b 557 361 517 472 557 425 b 460 250 557 297 517 250 z m 468 1000 b 517 951 497 1000 517 981 b 468 903 517 922 497 903 b 419 951 439 903 419 922 b 468 1000 419 981 439 1000 z m 558 501 b 326 750 528 654 442 750 b 43 361 157 750 43 594 b 326 -28 43 128 157 -28 b 558 221 442 -28 528 68 l 558 153 b 771 -28 558 18 653 -28 b 978 117 906 -28 978 31 l 978 250 l 922 250 l 922 118 b 899 94 922 104 913 94 b 878 118 886 94 878 104 l 878 722 l 558 722 z m 468 764 b 683 951 597 764 683 839 b 468 1139 683 1064 597 1139 b 253 951 339 1139 253 1064 b 468 764 253 839 339 764 z m 539 1319 l 419 1167 l 622 1167 l 772 1319 z "},"Ǽ":{"ha":1456,"x_min":0,"x_max":0,"o":"m 749 361 l 540 361 l 749 900 z m 1344 389 l 1344 625 l 1067 625 l 1067 722 l 1400 722 l 1400 1000 l 428 1000 l 1 0 l 400 0 l 449 125 l 747 125 l 747 0 l 1414 0 l 1414 278 l 1067 278 l 1067 389 z m 860 1292 l 699 1069 l 915 1069 l 1135 1292 z "},"ǽ":{"ha":1433,"x_min":0,"x_max":0,"o":"m 472 500 b 583 361 539 500 583 444 b 472 222 583 278 539 222 b 361 361 406 222 361 278 b 472 500 361 444 406 500 z m 896 417 b 985 514 907 483 940 514 b 1072 417 1032 514 1067 469 z m 1040 -28 b 1363 213 1178 -28 1319 74 l 1093 250 b 1003 194 1083 218 1046 194 b 897 278 949 194 907 229 l 1388 278 b 1392 368 1390 292 1392 346 b 1056 750 1392 590 1243 750 b 764 506 910 750 801 653 l 764 722 l 583 722 l 583 496 b 332 750 551 649 457 750 b 42 361 158 750 42 594 b 332 -28 42 128 158 -28 b 583 229 457 -28 550 69 l 583 0 l 764 0 l 764 222 b 1040 -28 800 72 903 -28 z m 571 792 l 779 792 l 997 1042 l 724 1042 z "},"Ǿ":{"ha":1196,"x_min":0,"x_max":0,"o":"m 439 364 b 404 500 417 401 404 447 b 599 729 404 633 486 729 b 629 726 608 729 619 728 z m 757 636 b 793 500 779 599 793 553 b 599 271 793 367 711 271 b 567 274 588 271 576 271 z m 1154 500 b 919 944 1154 692 1064 850 l 1051 1194 l 876 1194 l 779 1008 b 599 1035 722 1025 663 1035 b 43 500 276 1035 43 810 b 276 56 43 308 132 149 l 146 -194 l 321 -194 l 418 -8 b 599 -35 474 -25 535 -35 b 1154 500 921 -35 1154 190 z m 639 1306 l 478 1083 l 694 1083 l 914 1306 z "},"ǿ":{"ha":947,"x_min":0,"x_max":0,"o":"m 349 257 b 321 361 331 285 321 319 b 474 528 321 461 386 528 l 493 528 z m 599 464 b 626 361 617 436 626 401 b 474 194 626 261 565 194 b 456 196 467 194 461 194 z m 904 361 b 718 690 904 508 835 625 l 794 833 l 654 833 l 603 735 b 474 750 563 744 519 750 b 43 361 215 750 43 594 b 228 31 43 213 111 96 l 151 -111 l 293 -111 l 344 -12 b 474 -28 385 -22 428 -28 b 904 361 732 -28 904 128 z m 501 1056 l 349 806 l 557 806 l 775 1056 z "},"Ș":{"ha":1018,"x_min":0,"x_max":0,"o":"m 497 -35 b 969 333 771 -35 969 113 b 565 653 969 574 772 633 b 400 722 471 663 400 669 b 510 785 400 758 447 785 b 650 682 590 785 650 742 l 944 682 b 497 1035 944 886 757 1035 b 53 681 239 1035 53 894 b 460 358 53 442 246 382 b 622 285 551 349 622 340 b 510 215 622 244 575 215 b 358 332 425 215 358 264 l 50 332 b 497 -35 50 119 238 -35 z m 472 -361 b 375 -528 472 -412 432 -482 l 506 -556 b 639 -267 583 -496 639 -374 b 492 -97 639 -165 579 -97 b 361 -231 413 -97 361 -150 b 472 -361 361 -306 406 -361 z "},"ș":{"ha":808,"x_min":0,"x_max":0,"o":"m 392 -35 b 781 251 625 -35 781 83 b 419 471 781 428 582 457 b 322 519 401 472 322 479 b 393 563 322 544 351 563 b 481 501 442 563 481 538 l 746 501 b 392 757 746 650 596 757 b 44 486 190 757 44 643 b 336 263 44 303 188 269 b 475 210 449 257 475 240 b 399 160 475 181 442 160 b 294 233 338 160 294 190 l 43 233 b 392 -35 43 78 189 -35 z m 388 -361 b 290 -528 388 -412 346 -482 l 419 -556 b 554 -267 497 -496 554 -374 b 406 -97 554 -165 494 -97 b 276 -231 328 -97 276 -150 b 388 -361 276 -306 321 -361 z "},"ˆ":{"ha":661,"x_min":0,"x_max":0,"o":"m 43 792 l 247 792 l 331 986 l 414 792 l 618 792 l 511 1042 l 150 1042 z "},"ˇ":{"ha":661,"x_min":0,"x_max":0,"o":"m 414 1042 l 331 847 l 247 1042 l 43 1042 l 150 792 l 511 792 l 618 1042 z "},"˘":{"ha":558,"x_min":0,"x_max":0,"o":"m 279 792 b 515 1042 450 792 515 886 l 335 1042 b 279 944 335 983 313 944 b 224 1042 246 944 224 983 l 43 1042 b 279 792 43 886 108 792 z "},"˙":{"ha":406,"x_min":0,"x_max":0,"o":"m 203 778 b 363 931 296 778 363 842 b 203 1083 363 1019 296 1083 b 43 931 111 1083 43 1019 b 203 778 43 842 111 778 z "},"˚":{"ha":558,"x_min":0,"x_max":0,"o":"m 279 757 b 515 965 421 757 515 840 b 279 1174 515 1090 421 1174 b 43 965 138 1174 43 1090 b 279 757 43 840 138 757 z m 279 1035 b 349 965 321 1035 349 1007 b 279 896 349 924 321 896 b 210 965 238 896 210 924 b 279 1035 210 1007 238 1035 z "},"˛":{"ha":433,"x_min":0,"x_max":0,"o":"m 238 14 b 43 -176 119 -11 43 -83 b 390 -389 43 -300 182 -389 l 390 -257 b 215 -135 285 -257 215 -204 b 353 0 215 -72 271 -31 z "},"˜":{"ha":711,"x_min":0,"x_max":0,"o":"m 247 861 b 451 792 293 861 349 792 b 668 951 547 792 640 865 l 522 1024 b 454 972 507 993 479 972 b 250 1042 408 972 349 1042 b 43 882 158 1042 71 969 l 188 810 b 247 861 203 840 222 861 z "},"˝":{"ha":807,"x_min":0,"x_max":0,"o":"m 158 1042 l 43 792 l 242 792 l 431 1042 z m 478 1042 l 325 792 l 533 792 l 764 1042 z "},"Ẁ":{"ha":1783,"x_min":0,"x_max":0,"o":"m 614 1000 l 531 94 l 378 1000 l 15 1000 l 211 0 l 808 0 l 892 888 l 975 0 l 1572 0 l 1768 1000 l 1406 1000 l 1254 94 l 1169 1000 z m 778 1097 l 994 1097 l 833 1319 l 558 1319 z "},"ẁ":{"ha":1343,"x_min":0,"x_max":0,"o":"m 872 722 l 471 722 l 404 74 l 346 722 l 15 722 l 138 0 l 610 0 l 672 611 l 735 0 l 1207 0 l 1329 722 l 1013 722 l 953 64 z m 367 1056 l 585 806 l 793 806 l 640 1056 z "},"Ẃ":{"ha":1783,"x_min":0,"x_max":0,"o":"m 614 1000 l 531 94 l 378 1000 l 15 1000 l 211 0 l 808 0 l 892 888 l 975 0 l 1572 0 l 1768 1000 l 1406 1000 l 1254 94 l 1169 1000 z m 1201 1319 l 926 1319 l 764 1097 l 982 1097 z "},"ẃ":{"ha":1343,"x_min":0,"x_max":0,"o":"m 872 722 l 471 722 l 404 74 l 346 722 l 15 722 l 138 0 l 610 0 l 672 611 l 735 0 l 1207 0 l 1329 722 l 1013 722 l 953 64 z m 700 1056 l 547 806 l 756 806 l 974 1056 z "},"Ẅ":{"ha":1783,"x_min":0,"x_max":0,"o":"m 614 1000 l 531 94 l 378 1000 l 15 1000 l 211 0 l 808 0 l 892 888 l 975 0 l 1572 0 l 1768 1000 l 1406 1000 l 1254 94 l 1169 1000 z m 696 1083 b 842 1229 781 1083 842 1144 b 696 1375 842 1314 781 1375 b 550 1229 611 1375 550 1314 b 696 1083 550 1144 611 1083 z m 1085 1083 b 1231 1229 1169 1083 1231 1144 b 1085 1375 1231 1314 1169 1375 b 939 1229 1000 1375 939 1314 b 1085 1083 939 1144 1000 1083 z "},"ẅ":{"ha":1343,"x_min":0,"x_max":0,"o":"m 872 722 l 471 722 l 404 74 l 346 722 l 15 722 l 138 0 l 610 0 l 672 611 l 735 0 l 1207 0 l 1329 722 l 1013 722 l 953 64 z m 332 935 b 478 796 332 854 393 796 b 624 935 563 796 624 854 b 478 1074 624 1015 563 1074 b 332 935 393 1074 332 1015 z m 721 935 b 867 796 721 854 782 796 b 1013 935 951 796 1013 854 b 867 1074 1013 1015 951 1074 b 721 935 782 1074 721 1015 z "},"ẞ":{"ha":1126,"x_min":0,"x_max":0,"o":"m 668 694 b 569 611 668 644 629 611 l 500 611 l 500 431 l 564 431 b 710 300 651 431 710 378 b 622 194 710 239 672 194 b 535 219 599 194 564 204 l 486 19 b 738 -35 554 -11 660 -35 b 1071 258 931 -35 1069 90 b 717 553 1071 432 922 539 b 988 751 874 563 988 619 b 556 1035 986 910 821 1035 b 71 667 264 1035 71 888 l 71 0 l 432 0 l 432 681 b 550 803 432 754 479 803 b 668 694 621 803 668 760 z "},"Ỳ":{"ha":1032,"x_min":0,"x_max":0,"o":"m 653 1000 l 521 639 l 374 1000 l 0 1000 l 340 333 l 340 0 l 701 0 l 701 333 l 1032 1000 z m 404 1097 l 621 1097 l 460 1319 l 185 1319 z "},"ỳ":{"ha":913,"x_min":0,"x_max":0,"o":"m 447 99 l 335 722 l 1 722 l 208 0 l 426 0 b 239 -235 382 -153 344 -235 b 125 -125 161 -235 125 -189 l 125 -58 l 69 -58 l 69 -154 b 315 -333 69 -258 149 -333 b 696 -42 529 -333 649 -210 l 911 722 l 585 722 z m 153 1056 l 371 806 l 579 806 l 426 1056 z "},"–":{"ha":878,"x_min":0,"x_max":0,"o":"m 835 556 l 43 556 l 43 306 l 835 306 z "},"—":{"ha":1128,"x_min":0,"x_max":0,"o":"m 29 556 l 29 306 l 1099 306 l 1099 556 z "},"‘":{"ha":433,"x_min":0,"x_max":0,"o":"m 390 632 b 238 799 390 729 326 799 b 365 1007 238 850 290 938 l 210 1035 b 43 700 113 958 43 817 b 224 465 43 558 115 465 b 390 632 317 465 390 535 z "},"’":{"ha":433,"x_min":0,"x_max":0,"o":"m 43 889 b 196 722 43 792 107 722 b 68 514 196 671 142 583 l 224 486 b 390 821 319 563 390 704 b 210 1056 390 963 318 1056 b 43 889 117 1056 43 986 z "},"‚":{"ha":433,"x_min":0,"x_max":0,"o":"m 43 139 b 196 -28 43 42 107 -28 b 68 -236 196 -79 142 -167 l 224 -264 b 390 71 319 -187 390 -46 b 210 306 390 213 318 306 b 43 139 117 306 43 236 z "},"“":{"ha":856,"x_min":0,"x_max":0,"o":"m 393 632 b 240 799 393 729 329 799 b 368 1007 240 850 294 938 l 213 1035 b 46 700 115 958 46 817 b 226 465 46 558 118 465 b 393 632 319 465 393 535 z m 810 632 b 657 799 810 729 746 799 b 785 1007 657 850 711 938 l 629 1035 b 463 700 532 958 463 817 b 643 465 463 558 535 465 b 810 632 736 465 810 535 z "},"”":{"ha":851,"x_min":0,"x_max":0,"o":"m 46 903 b 199 736 46 806 110 736 b 71 528 199 685 144 597 l 226 500 b 393 835 324 576 393 718 b 213 1069 393 976 321 1069 b 46 903 119 1069 46 1000 z m 463 903 b 615 736 463 806 526 736 b 488 528 615 685 561 597 l 643 500 b 810 835 740 576 810 718 b 629 1069 810 976 738 1069 b 463 903 536 1069 463 1000 z "},"„":{"ha":851,"x_min":0,"x_max":0,"o":"m 46 139 b 199 -28 46 42 110 -28 b 71 -236 199 -79 144 -167 l 226 -264 b 393 71 324 -187 393 -46 b 213 306 393 213 321 306 b 46 139 119 306 46 236 z m 463 139 b 615 -28 463 42 526 -28 b 488 -236 615 -79 561 -167 l 643 -264 b 810 71 740 -187 810 -46 b 629 306 810 213 738 306 b 463 139 536 306 463 236 z "},"•":{"ha":544,"x_min":0,"x_max":0,"o":"m 272 208 b 501 431 406 208 501 301 b 272 653 501 560 406 653 b 43 431 139 653 43 560 b 272 208 43 301 139 208 z "},"…":{"ha":1267,"x_min":0,"x_max":0,"o":"m 43 139 b 217 -28 43 42 117 -28 b 390 139 318 -28 390 42 b 217 306 390 236 318 306 b 43 139 117 306 43 236 z m 460 139 b 633 -28 460 42 533 -28 b 807 139 735 -28 807 42 b 633 306 807 236 735 306 b 460 139 533 306 460 236 z m 876 139 b 1050 -28 876 42 950 -28 b 1224 139 1151 -28 1224 42 b 1050 306 1224 236 1151 306 b 876 139 950 306 876 236 z "},"‰":{"ha":2253,"x_min":0,"x_max":0,"o":"m 1210 611 b 890 292 1025 611 890 476 b 1210 -28 890 107 1025 -28 b 1529 292 1394 -28 1529 107 b 1210 611 1529 476 1394 611 z m 1210 375 b 1293 292 1258 375 1293 340 b 1210 208 1293 243 1258 208 b 1126 292 1161 208 1126 243 b 1210 375 1126 340 1161 375 z m 1890 611 b 1571 292 1706 611 1571 476 b 1890 -28 1571 107 1706 -28 b 2210 292 2075 -28 2210 107 b 1890 611 2210 476 2075 611 z m 1890 375 b 1974 292 1939 375 1974 340 b 1890 208 1974 243 1939 208 b 1807 292 1842 208 1807 243 b 1890 375 1807 340 1842 375 z m 363 1069 b 43 750 178 1069 43 935 b 363 431 43 565 178 431 b 682 750 547 431 682 565 b 363 1069 682 935 547 1069 z m 363 833 b 446 750 411 833 446 799 b 363 667 446 701 411 667 b 279 750 314 667 279 701 b 363 833 279 799 314 833 z m 1261 1042 l 1001 1042 l 311 0 l 571 0 z "},"‹":{"ha":585,"x_min":0,"x_max":0,"o":"m 542 722 l 224 722 l 1 375 l 224 0 l 542 0 l 307 375 z "},"›":{"ha":583,"x_min":0,"x_max":0,"o":"m 583 375 l 361 722 l 43 722 l 278 375 l 43 0 l 361 0 z "},"₤":{"ha":975,"x_min":0,"x_max":0,"o":"m 524 458 b 529 500 526 472 529 489 l 793 500 l 793 639 l 529 639 l 529 681 b 588 771 529 733 551 771 b 653 688 624 771 643 736 l 933 732 b 550 1035 908 907 775 1035 b 196 708 344 1035 196 897 l 196 639 l 43 639 l 43 500 l 196 500 l 196 458 l 43 458 l 43 333 l 135 333 b 43 292 110 308 79 294 l 43 0 l 932 0 l 932 222 l 163 222 b 461 319 314 236 425 256 l 793 319 l 793 458 z "},"€":{"ha":1253,"x_min":0,"x_max":0,"o":"m 876 421 b 693 271 860 333 782 271 b 538 342 628 271 574 297 l 696 342 l 696 481 l 488 481 l 488 521 l 696 521 l 696 660 l 539 660 b 694 729 575 704 628 729 b 875 579 783 729 860 667 l 1207 614 b 682 1035 1190 858 969 1035 b 149 660 418 1035 214 885 l 29 660 l 29 521 l 126 521 l 126 481 l 29 481 l 29 342 l 149 342 b 682 -35 213 117 418 -35 b 1211 386 976 -35 1199 142 z "},"™":{"ha":1711,"x_min":0,"x_max":0,"o":"m 182 778 l 182 208 l 446 208 l 446 778 l 613 778 l 613 1000 l 15 1000 l 15 778 z m 668 208 l 904 208 l 904 836 l 974 208 l 1321 208 l 1390 836 l 1390 208 l 1626 208 l 1626 1000 l 1193 1000 l 1146 321 l 1093 1000 l 668 1000 z "},"−":{"ha":656,"x_min":0,"x_max":0,"o":"m 43 556 l 43 306 l 613 306 l 613 556 z "},"≈":{"ha":958,"x_min":0,"x_max":0,"o":""},"≠":{"ha":739,"x_min":0,"x_max":0,"o":"m 43 361 l 43 125 l 197 125 l 143 -56 l 321 -56 l 374 125 l 696 125 l 696 361 l 444 361 l 481 486 l 696 486 l 696 722 l 551 722 l 606 903 l 432 903 l 378 722 l 43 722 l 43 486 l 306 486 l 268 361 z "},"≤":{"ha":628,"x_min":0,"x_max":0,"o":"m 585 194 l 43 194 l 43 0 l 585 0 z m 43 653 l 43 319 l 585 250 l 585 431 l 115 486 l 585 542 l 585 722 z "},"≥":{"ha":628,"x_min":0,"x_max":0,"o":"m 43 194 l 43 0 l 585 0 l 585 194 z m 43 431 l 43 250 l 585 319 l 585 653 l 43 722 l 43 542 l 513 486 z "},"":{"ha":364,"x_min":0,"x_max":0,"o":"m 154 -56 b 57 -222 154 -107 113 -176 l 186 -250 b 321 39 264 -190 321 -68 b 172 208 321 140 261 208 b 43 75 94 208 43 156 b 154 -56 43 0 88 -56 z "}}}
